<?xml version="1.0" encoding="utf-8"?>
<!-- Generator: Adobe Illustrator 24.0.2, SVG Export Plug-In . SVG Version: 6.00 Build 0)  -->
<svg version="1.1" xmlns="http://www.w3.org/2000/svg" xmlns:xlink="http://www.w3.org/1999/xlink" x="0px" y="0px"
	 viewBox="0 0 500 500" style="enable-background:new 0 0 500 500;" xml:space="preserve">
<style type="text/css">
	.st0{display:none;}
	.st1{display:inline;fill:#FFFFEB;}
	.st2{fill:#134E4A;}
	.st3{fill:#FFD780;}
	.st4{fill:#FFD16B;}
	.st5{fill:#FCBA4E;}
	.st6{fill:#FCAE30;}
	.st7{fill:#FFFFEB;}
</style>
<g id="BACKGROUND" class="st0">
	<rect class="st1" width="500" height="500"/>
</g>
<g id="OBJECTS">
	<g>
		<g>
			<path class="st2" d="M176.32,70.45V59.81h0.95v9.78h4.87v0.86H176.32z"/>
			<path class="st2" d="M189.47,66.52c0,2.89-0.64,4.09-3.2,4.09c-2.57,0-3.21-1.19-3.21-4.09c0-2.71,0.84-3.87,3.21-3.87
				C188.63,62.65,189.47,63.81,189.47,66.52z M188.53,66.52c0-2.3-0.52-3.06-2.27-3.06c-1.76,0-2.27,0.77-2.27,3.06
				c0,2.34,0.28,3.27,2.27,3.27C188.24,69.79,188.53,68.86,188.53,66.52z"/>
			<path class="st2" d="M197.53,66.52c0,2.89-0.64,4.09-3.2,4.09c-2.57,0-3.21-1.19-3.21-4.09c0-2.71,0.84-3.87,3.21-3.87
				C196.69,62.65,197.53,63.81,197.53,66.52z M196.6,66.52c0-2.3-0.52-3.06-2.27-3.06c-1.76,0-2.27,0.77-2.27,3.06
				c0,2.34,0.28,3.27,2.27,3.27C196.31,69.79,196.6,68.86,196.6,66.52z"/>
			<path class="st2" d="M199.51,70.45V59.4h0.9v6.58l1.3-0.03l2.36-3.15h1.06l-2.62,3.5l2.74,4.15h-1.07l-2.45-3.69l-1.32,0.03v3.66
				H199.51z"/>
			<path class="st2" d="M211.66,63.73c0,0-1.64-0.24-2.65-0.24c-0.95,0-1.81,0.26-1.81,1.3c0,0.8,0.38,1.03,2.05,1.3
				c1.96,0.32,2.69,0.67,2.69,2.14c0,1.79-1.12,2.37-2.95,2.37c-0.93,0-2.62-0.28-2.62-0.28l0.06-0.81c0,0,1.71,0.26,2.49,0.26
				c1.32,0,2.08-0.31,2.08-1.5c0-0.92-0.46-1.12-2.17-1.38c-1.76-0.28-2.57-0.6-2.57-2.08c0-1.67,1.38-2.16,2.71-2.16
				c1.15,0,2.71,0.26,2.71,0.26L211.66,63.73z"/>
			<path class="st2" d="M217.35,70.45V59.81h0.95v9.78h4.87v0.86H217.35z"/>
			<path class="st2" d="M224.52,59.74h0.9v1.15h-0.9V59.74z M224.52,62.8h0.9v7.65h-0.9V62.8z"/>
			<path class="st2" d="M227.72,70.45V59.4h0.9v6.58l1.3-0.03l2.36-3.15h1.06l-2.62,3.5l2.74,4.15h-1.07l-2.45-3.69l-1.32,0.03v3.66
				H227.72z"/>
			<path class="st2" d="M240.22,69.64l0.03,0.75c0,0-1.73,0.21-2.92,0.21c-2.28-0.02-2.97-1.39-2.97-3.95
				c0-2.95,1.29-4.01,3.15-4.01c1.97,0,3.02,1.06,3.02,3.63l-0.03,0.73h-5.2c0,1.81,0.52,2.77,2.13,2.77
				C238.54,69.78,240.22,69.64,240.22,69.64z M239.61,66.24c0-2.07-0.66-2.8-2.1-2.8c-1.39,0-2.22,0.77-2.22,2.8H239.61z"/>
			<path class="st2" d="M249.19,70.45h-0.95v-4.5l-3.41-6.14h1.06l2.83,5.16l2.82-5.16h1.07l-3.41,6.14V70.45z"/>
			<path class="st2" d="M258.95,66.52c0,2.89-0.64,4.09-3.2,4.09c-2.57,0-3.21-1.19-3.21-4.09c0-2.71,0.84-3.87,3.21-3.87
				C258.11,62.65,258.95,63.81,258.95,66.52z M258.02,66.52c0-2.3-0.52-3.06-2.27-3.06c-1.76,0-2.26,0.77-2.26,3.06
				c0,2.34,0.28,3.27,2.26,3.27C257.73,69.79,258.02,68.86,258.02,66.52z"/>
			<path class="st2" d="M266.67,62.8v7.65h-0.9v-0.57c0,0-1.18,0.72-2.36,0.72c-2.13,0-2.56-0.95-2.56-3.81V62.8h0.9v3.98
				c0,2.28,0.23,3,1.76,3c1.21,0,2.25-0.64,2.25-0.64V62.8H266.67z"/>
			<path class="st2" d="M276.69,65.08h2.89v5.14c-0.41,0.09-2.31,0.38-3.41,0.38c-3.21,0-4.07-2.02-4.07-5.43
				c0-3.46,0.84-5.51,4.06-5.51c1.61,0,3.43,0.4,3.43,0.4l-0.05,0.81c0,0-1.91-0.35-3.31-0.35c-2.6,0-3.15,1.64-3.15,4.65
				c0,2.98,0.55,4.58,3.14,4.58c0.8,0,1.93-0.15,2.43-0.24v-3.58h-1.96V65.08z"/>
			<path class="st2" d="M287.87,66.52c0,2.89-0.64,4.09-3.2,4.09c-2.57,0-3.21-1.19-3.21-4.09c0-2.71,0.84-3.87,3.21-3.87
				C287.02,62.65,287.87,63.81,287.87,66.52z M286.93,66.52c0-2.3-0.52-3.06-2.27-3.06c-1.76,0-2.26,0.77-2.26,3.06
				c0,2.34,0.28,3.27,2.26,3.27C286.64,69.79,286.93,68.86,286.93,66.52z"/>
			<path class="st2" d="M291.08,63.61v3.78c0,1.91,0.12,2.4,1.22,2.4c0.43,0,1.41-0.11,1.41-0.11l0.06,0.78c0,0-1.01,0.15-1.54,0.15
				c-1.52,0-2.07-0.57-2.07-2.77v-4.24h-1.13V62.8h1.13v-2.4h0.92v2.4h2.56v0.81H291.08z"/>
			<path class="st2" d="M298.63,70.45V59.81h0.95v9.78h4.87v0.86H298.63z"/>
			<path class="st2" d="M311.77,66.52c0,2.89-0.64,4.09-3.2,4.09c-2.57,0-3.21-1.19-3.21-4.09c0-2.71,0.84-3.87,3.21-3.87
				C310.93,62.65,311.77,63.81,311.77,66.52z M310.84,66.52c0-2.3-0.52-3.06-2.27-3.06c-1.76,0-2.26,0.77-2.26,3.06
				c0,2.34,0.28,3.27,2.26,3.27C310.55,69.79,310.84,68.86,310.84,66.52z"/>
			<path class="st2" d="M318.71,63.73c0,0-1.64-0.24-2.65-0.24c-0.95,0-1.81,0.26-1.81,1.3c0,0.8,0.38,1.03,2.05,1.3
				c1.96,0.32,2.69,0.67,2.69,2.14c0,1.79-1.12,2.37-2.95,2.37c-0.93,0-2.62-0.28-2.62-0.28l0.06-0.81c0,0,1.71,0.26,2.49,0.26
				c1.32,0,2.08-0.31,2.08-1.5c0-0.92-0.46-1.12-2.17-1.38c-1.76-0.28-2.57-0.6-2.57-2.08c0-1.67,1.38-2.16,2.71-2.16
				c1.15,0,2.71,0.26,2.71,0.26L318.71,63.73z"/>
			<path class="st2" d="M322.17,63.61v3.78c0,1.91,0.12,2.4,1.22,2.4c0.43,0,1.41-0.11,1.41-0.11l0.06,0.78c0,0-1.01,0.15-1.54,0.15
				c-1.52,0-2.07-0.57-2.07-2.77v-4.24h-1.13V62.8h1.13v-2.4h0.92v2.4h2.56v0.81H322.17z"/>
		</g>
	</g>
	<g>
		<g>
			<path class="st2" d="M156.79,84.44c5.84,0,6.95,2.52,6.95,5.38c0,3.32-3.02,4.98-6.62,4.98h-1.91v3.9h1.54v3.32h-8.1V98.7h1.41
				V87.73h-1.41v-3.3H156.79z M155.2,92.09h1.13c1.46,0,2.47-0.75,2.47-2.09c0-1.48-0.88-2.29-2.34-2.29h-1.26V92.09z"/>
			<path class="st2" d="M165.02,90.5c1.01-0.6,3.17-1.79,5.49-1.79c3.02,0,6.82,1.13,6.82,5.18v4.91h1.51v3.22h-5.38l-0.6-1.13
				c-0.93,1.28-2.49,1.61-3.4,1.61c-2.39,0-4.96-1.28-4.96-4.2c0-2.84,2.39-4.63,5.23-4.63c1.48,0,2.37,0.73,2.49,0.88v-0.88
				c0-1.13-1.03-1.41-2.39-1.41c-1.48,0-2.79,0.63-3.75,1.16L165.02,90.5z M172.21,97.45c-0.08-0.13-0.43-0.73-1.48-0.73
				c-1.01,0-1.46,0.55-1.46,1.33c0,0.7,0.58,1.18,1.33,1.18s1.38-0.45,1.61-0.83V97.45z"/>
			<path class="st2" d="M181.15,102.18c0.58,0.5,2.47,1.61,4.38,1.61c2.26,0,2.92-1.31,2.92-2.37v-0.86
				c-0.35,0.45-1.33,1.38-2.94,1.38c-4.33,0-6.04-3.12-6.04-6.29c0-3.9,2.16-6.47,6.32-6.47c1.11,0,2.16,0.53,2.67,1.03l0.5-0.78
				h5.99v3.3h-1.51v7.52c0,4.18-2.57,6.89-7.85,6.92c-2.77-0.03-4.81-1.33-5.76-2.21L181.15,102.18z M186.63,98.7
				c0.98,0,1.89-1.23,1.79-3.22c0-1.71-0.86-3.02-1.81-3.02c-1.06,0-1.79,1.23-1.79,3.15C184.82,97.12,185.52,98.7,186.63,98.7z"/>
			<path class="st2" d="M208.57,100.29c-1.86,1.61-3.88,2.19-6.49,2.19c-3.12,0-6.64-1.99-6.64-6.82c0-4.13,2.97-6.57,6.77-6.57
				c2.99,0,5.28,1.53,6.01,3.65c0.3,0.88,0.58,2.82,0.05,4.25h-7.93c0.15,0.68,0.48,2.06,2.59,2.06c0.86,0,2.16-0.08,3.52-1.21
				L208.57,100.29z M204.22,94.5c-0.03-0.96-0.25-2.01-1.86-2.01c-1.54,0-1.89,1.38-1.94,2.01H204.22z"/>
			<path class="st2" d="M233.48,87.68v14.34h-5.41l-6.42-9.59v6.34h1.94v3.25h-7.73v-3.25h1.49v-11.1h-1.46v-3.25h7.22l6.17,9.23
				v-5.99h-1.71v-3.25h7.57v3.25H233.48z"/>
			<path class="st2" d="M236.05,95.68c0.03-4.2,3.42-6.54,6.89-6.54c3.98,0.05,6.92,2.44,7,6.64c0.05,4.18-3.04,6.57-6.87,6.57
				C239.47,102.35,236,100.14,236.05,95.68z M244.78,95.79c0-1.89-0.65-3.35-1.84-3.37c-0.98,0-1.74,1.46-1.74,3.3
				c0,2.06,0.81,3.42,1.86,3.42C244.15,99.13,244.78,97.67,244.78,95.79z"/>
			<path class="st2" d="M251.95,89.44v-2.31l4.63-1.48v3.8h2.39v3.27h-2.39v4.48c0,0.86-0.18,2.01,0.8,2.01
				c0.33,0,1.11-0.23,1.58-0.43V102c-0.75,0.3-2.47,0.48-3.04,0.48c-3.77,0-3.9-2.06-3.98-5.28v-4.48h-1.36v-3.27H251.95z"/>
			<path class="st2" d="M281.31,84.44V90h-4.45v-2.24h-3.8v4.38h4.78v3.35h-4.78v3.2h2.57v3.35h-9.36v-3.35h1.56V87.76h-1.56v-3.32
				H281.31z"/>
			<path class="st2" d="M281.97,95.68c0.03-4.2,3.42-6.54,6.89-6.54c3.98,0.05,6.92,2.44,7,6.64c0.05,4.18-3.04,6.57-6.87,6.57
				C285.39,102.35,281.92,100.14,281.97,95.68z M290.7,95.79c0-1.89-0.65-3.35-1.84-3.37c-0.98,0-1.74,1.46-1.74,3.3
				c0,2.06,0.81,3.42,1.86,3.42C290.07,99.13,290.7,97.67,290.7,95.79z"/>
			<path class="st2" d="M302.6,89.44v6.06c0,2.16,0.33,3.17,1.36,3.17c0.88,0,1.58-0.78,1.58-1.91v-4h-1.66v-3.32h6.52v9.23h1.23
				v3.35h-4.76l-0.68-1.58c-0.55,0.63-1.43,1.94-3.57,1.94c-3.8,0-5.06-1.96-5.06-6.14v-3.47h-1.06v-3.32H302.6z"/>
			<path class="st2" d="M312.64,102.03v-3.3h1.06v-6.01h-1.06v-3.27H318l0.58,1.56c0.86-1.18,2.01-2.01,3.6-2.01
				c3.9,0,4.55,2.89,4.55,5.54v4.2h1.18v3.3h-6.34v-6.87c0-0.86,0.08-2.34-1.41-2.34c-1.28,0-1.58,1.26-1.58,2.34v3.57h1.81v3.3
				H312.64z"/>
			<path class="st2" d="M336.39,86.43v-3.27h6.26v15.6h1.21v3.27h-5.89l-0.43-0.93c-0.33,0.3-1.43,1.16-3.17,1.16
				c-3.55,0-5.84-3.15-5.84-6.64c0-3.93,2.74-6.42,5.84-6.42c1.79,0,2.69,0.65,3.17,0.96v-3.72H336.39z M335.76,98.7
				c0.98,0,1.89-1.23,1.79-3.22c0-1.71-0.86-3.02-1.81-3.02c-1.06,0-1.79,1.23-1.79,3.15C333.95,97.12,334.66,98.7,335.76,98.7z"/>
			<path class="st2" d="M347.82,96.79c1.79,0,2.99,1.23,2.99,2.67c0,1.41-1.16,2.59-2.99,2.59c-1.64,0-2.87-1.28-2.87-2.59
				C344.95,98.2,346,96.79,347.82,96.79z M345.05,84.44h6.01v4.78l-1.33,6.34h-3.32l-1.36-6.34V84.44z"/>
		</g>
	</g>
	<g>
		<g>
			<path class="st3" d="M388.55,237.11c-0.36-3.46-3.15-6.3-6.61-6.75c-1.52-0.2-2.96,0.07-4.22,0.66c0.01-0.24,0.04-0.48,0.04-0.72
				c0-8.43-6.84-15.27-15.27-15.27c-3.23,0-6.23,1.01-8.7,2.73c-2.53-10.37-12.24-17.92-23.57-17.07
				c-10.79,0.81-19.58,9.42-20.63,20.19c-0.33,3.35,0.1,6.56,1.1,9.5c-0.32-0.04-0.63-0.07-0.96-0.07c-1.49,0-2.87,0.43-4.05,1.17
				c0-0.14,0.02-0.27,0.02-0.41c0-8.02-6.5-14.52-14.52-14.52s-14.52,6.5-14.52,14.52c0,0.78,0.08,1.55,0.2,2.3H252.5
				c-3.37,0-6.11,2.74-6.11,6.11c0,3.37,2.74,6.11,6.11,6.11h131.1v-0.48C386.76,243.93,388.94,240.75,388.55,237.11z"/>
		</g>
		<path class="st4" d="M106.41,346.2c0,0,36.17-68.62,79.26-67.9c61.97,1.04,100.7,60.36,100.7,60.36L106.41,346.2z"/>
		<path class="st3" d="M196.88,346.2c0,0,51.12-87.32,94.22-86.6c61.97,1.04,94.21,85.14,94.21,85.14L196.88,346.2z"/>
		<path class="st5" d="M393.59,357.71c0,15.18-67.89,15.09-144.53,25.43C129.32,399.3,106.41,346.2,106.41,346.2
			c5.76-14.39,78.89-33.32,150.14-33.32S393.59,342.52,393.59,357.71z"/>
		<g>
			<path class="st3" d="M259.13,187.86h-23.6c0.64-2.46,0.6-5.2-0.89-8.12c-1.61-3.17-4.52-5.57-8-6.3
				c-2.17-0.46-4.24-0.28-6.11,0.34c0-0.13,0.01-0.25,0.01-0.38c0-11.48-9.31-20.79-20.79-20.79c-10.16,0-18.61,7.29-20.42,16.91
				c-0.84-0.16-1.7-0.25-2.58-0.25c-7.28,0-13.21,5.69-13.62,12.86l-32.07,0c-3.96,0-7.41,3.05-7.53,7.01
				c-0.12,4.1,3.16,7.45,7.23,7.45h128.37c2.41,0,4.37-1.96,4.37-4.37C263.51,189.82,261.55,187.86,259.13,187.86z"/>
		</g>
		<g>
			<path class="st3" d="M346.79,161.93h-14.04c0.38-1.46,0.36-3.09-0.53-4.83c-0.96-1.88-2.69-3.31-4.76-3.75
				c-1.29-0.27-2.52-0.17-3.63,0.2c0-0.08,0.01-0.15,0.01-0.23c0-6.83-5.54-12.37-12.37-12.37c-6.04,0-11.07,4.34-12.15,10.06
				c-0.5-0.1-1.01-0.15-1.54-0.15c-4.33,0-7.86,3.39-8.11,7.65h-19.08c-2.36,0-4.41,1.82-4.48,4.17c-0.07,2.44,1.88,4.44,4.3,4.44
				h76.38c1.44,0,2.6-1.16,2.6-2.6C349.39,163.1,348.23,161.93,346.79,161.93z"/>
		</g>
		<path class="st6" d="M133.77,330.58c11.93,14.14,47.19,41.22,137.33,29.05c45.39-6.13,87.71-8.59,114.67-12.74
			c-19.46-15.31-72.62-34.02-129.22-34.02C209.98,312.87,162.61,320.96,133.77,330.58z"/>
		<g>
			<path class="st7" d="M316.26,207.83c0.36-1.74-1.15-3.67-1.9-5.27c-0.59-1.25-1.19-2.5-1.77-3.76c-0.09-0.19-0.23-0.74-0.31-0.59
				c0.13-0.42,0.57-0.94,0.76-1.29c1.02-1.85,2.4-3.51,2.4-5.64v-4.65c0-0.89,0.25-2.23,0-3.1c-0.29-0.99-1.3-1.94-1.91-2.76
				c-0.54-0.72-1.08-1.44-1.62-2.16c-0.31-0.42-0.68-1.27-0.79-0.88c0.2-1,1.64-2.62,2.11-3.41c0.72-1.2,1.44-2.4,2.16-3.61
				c0.3-0.5-0.39-0.77-0.74-0.77h-53.66c0.06-0.08,0.09-0.17,0.09-0.27v-31.89c0.43-0.51-0.04-1.58-0.92-1.42
				c-7.49,1.34-14.27,4.98-21.65,6.68c-0.35,0.08-0.53,0.3-0.6,0.56c-0.09,0.08-0.15,0.18-0.15,0.28v26.07h-49.19
				c-0.35,0-0.91,0.3-0.91,0.7c-0.02,3.61-0.05,7.22-0.07,10.83c-0.01,1.14-0.08,1.32,0.65,2.1c1.02,1.09,2.43,1.97,3.7,2.87
				c-0.01,0.01-0.02,0.02-0.03,0.04c-1.3,0.69-2.6,1.38-3.9,2.06c-0.21,0.11-0.47,0.32-0.47,0.59c-0.03,3.9-0.05,7.79-0.07,11.69
				l-0.05,7.97c-0.01,1.26-0.31,2.98-0.03,4.22c0.33,1.44,1.83,2.95,2.65,4.16c0.09,0.13,0.23,0.3,0.37,0.47
				c-0.23,0.25-0.32,0.55-0.07,0.7c-0.02,0.02-0.04,0.04-0.06,0.07c-0.81,0.8-1.54,1.89-2.21,2.81c-0.94,1.29-0.75,2.28-0.76,3.9
				c-0.01,2.24-0.03,4.47-0.04,6.71c0,0.45,0.4,0.59,0.79,0.6c14.27,0.45,28.54,0.91,42.81,1.36l8.22,0.26v106.62
				c-0.58,0.39-0.42,1.56,0.49,1.6l20.36,1c0.6,0.03,0.87-0.45,0.83-0.91c0.03-0.09,0.06-0.19,0.06-0.31V234.76
				c12.66,0.4,25.33,0.81,37.99,1.21c5.13,0.16,10.27,0.33,15.4,0.49c0.15,0.03,0.31,0.03,0.47-0.01c0.23-0.03,0.41-0.12,0.53-0.26
				c0.17-0.15,0.27-0.36,0.22-0.59c-1.09-5.11-2.18-10.22-3.27-15.33c-0.09-0.43-0.2-1.45-0.27-1.24c0.18-1.05,0.88-2.22,1.26-3.2
				C314.14,213.28,315.71,210.51,316.26,207.83z"/>
			<g>
				<g>
					<path class="st6" d="M316.26,207.83c0.36-1.74-1.15-3.67-1.9-5.27c-0.59-1.25-1.19-2.5-1.77-3.76
						c-0.09-0.19-0.23-0.74-0.31-0.59c0.13-0.42,0.57-0.94,0.76-1.29c1.02-1.85,2.4-3.51,2.4-5.64v-4.65c0-0.89,0.25-2.23,0-3.1
						c-0.29-0.99-1.3-1.94-1.91-2.76c-0.54-0.72-1.08-1.44-1.62-2.16c-0.31-0.42-0.68-1.27-0.79-0.88c0.2-1,1.64-2.62,2.11-3.41
						c0.72-1.2,1.44-2.4,2.16-3.61c0.3-0.5-0.39-0.77-0.74-0.77h-53.66c0.06-0.08,0.09-0.17,0.09-0.27v-31.89
						c0.43-0.51-0.04-1.58-0.92-1.42c-7.49,1.34-14.27,4.98-21.65,6.68c-0.35,0.08-0.53,0.3-0.6,0.56
						c-0.09,0.08-0.15,0.18-0.15,0.28v26.07h-49.19c-0.35,0-0.91,0.3-0.91,0.7c-0.02,3.61-0.05,7.22-0.07,10.83
						c-0.01,1.14-0.08,1.32,0.65,2.1c1.02,1.09,2.43,1.97,3.7,2.87c-0.01,0.01-0.02,0.02-0.03,0.04c-1.3,0.69-2.6,1.38-3.9,2.06
						c-0.21,0.11-0.47,0.32-0.47,0.59c-0.03,3.9-0.05,7.79-0.07,11.69l-0.05,7.97c-0.01,1.26-0.31,2.98-0.03,4.22
						c0.33,1.44,1.83,2.95,2.65,4.16c0.09,0.13,0.23,0.3,0.37,0.47c-0.23,0.25-0.32,0.55-0.07,0.7c-0.02,0.02-0.04,0.04-0.06,0.07
						c-0.81,0.8-1.54,1.89-2.21,2.81c-0.94,1.29-0.75,2.28-0.76,3.9c-0.01,2.24-0.03,4.47-0.04,6.71c0,0.45,0.4,0.59,0.79,0.6
						c14.27,0.45,28.54,0.91,42.81,1.36l8.22,0.26v106.62c-0.58,0.39-0.42,1.56,0.49,1.6l20.36,1c0.6,0.03,0.87-0.45,0.83-0.91
						c0.03-0.09,0.06-0.19,0.06-0.31V234.76c12.66,0.4,25.33,0.81,37.99,1.21c5.13,0.16,10.27,0.33,15.4,0.49
						c0.15,0.03,0.31,0.03,0.47-0.01c0.23-0.03,0.41-0.12,0.53-0.26c0.17-0.15,0.27-0.36,0.22-0.59
						c-1.09-5.11-2.18-10.22-3.27-15.33c-0.09-0.43-0.2-1.45-0.27-1.24c0.18-1.05,0.88-2.22,1.26-3.2
						C314.14,213.28,315.71,210.51,316.26,207.83z M239.44,144.61c6.8-1.65,13.11-4.86,19.96-6.32v31.54c0,0.05,0.01,0.09,0.02,0.14
						h-19.97V144.61z M259.09,341.52c-3.86-0.19-7.73-0.38-11.59-0.57c0.34-0.08,0.63-0.35,0.63-0.8v-24.01c0-1.11-1.73-1.12-1.73,0
						v24.01c0,0.41,0.23,0.67,0.53,0.78c-2.04-0.1-4.07-0.2-6.11-0.3v-106.5c6.09,0.19,12.18,0.39,18.27,0.58V341.52z
						 M310.44,220.53c-6.32,0.47-12.65,0.65-18.99,0.53c-0.56-0.01-1.8,0.82-0.68,0.84c6.62,0.12,13.23-0.07,19.83-0.59
						c0.57,2.65,1.13,5.3,1.7,7.95c-27.52,0.5-55.05,0.66-82.58,0.5c-0.97-0.01-1.27,1.26-0.14,1.27c27.66,0.17,55.33,0,82.98-0.5
						c0.33,1.53,0.66,3.07,0.98,4.6l-41.72-1.33c-22.65-0.72-45.3-1.44-67.95-2.16c-4.97-0.16-9.95-0.32-14.92-0.48
						c0.03-2.58,0.14-5.18,0.05-7.76c-0.05-1.35-0.14-0.85,0.75-1.98c0.76-0.97,1.52-1.94,2.28-2.91
						c6.83,0.34,13.67,0.56,20.51,0.66c0.95,0.01,1.29-1.19,0.15-1.21c-6.86-0.1-13.71-0.33-20.55-0.68
						c-0.83-1.23-1.63-2.49-2.51-3.68c-0.72-0.97-0.59-0.46-0.55-1.69c0.09-3.03,0.06-6.07,0.06-9.1
						c6.55-0.32,13.11-0.63,19.66-0.95c0.96-0.05,1.27-1.32,0.14-1.27c-6.6,0.32-13.2,0.64-19.8,0.96c0-0.09,0-0.18,0-0.26
						c0.02-3.64,0.05-7.29,0.07-10.93c0-0.33,0.03-0.67,0.01-1.01c0.01,0,0.03,0,0.04-0.01c1.17-0.21,2.56-1.21,3.73-1.93
						c0.39,0.12,0.8,0.13,1.34,0.1c0.41-0.03,0.74-0.27,0.85-0.5c9.07,0.12,18.15,0.24,27.22,0.36c0.65,0.01,1.77-0.96,0.64-0.97
						c-9.69-0.13-19.38-0.26-29.07-0.38c-0.01-0.01-0.02-0.03-0.04-0.04c-1.35-1.04-2.66-2.27-4.11-3.16
						c-0.14-0.09-0.38-0.23-0.55-0.38c-0.13-0.54,0.01-1.33,0.02-1.87c0.02-3.1,0.04-6.21,0.06-9.31h123.97
						c-1.29,2.15-2.58,4.3-3.87,6.44c-0.08,0.14-0.05,0.37,0.04,0.5c1.31,1.74,3.15,3.54,4.12,5.49c0.09,0.19,0.13,0.22,0.13,0.2
						c0.07,0.36-0.01,0.81-0.01,1.16v4.45c0,2.56-0.07,3.13-1.28,5.33c-0.62,1.13-1.53,2.18-1.68,3.33
						c-7.11-0.11-14.21,0.07-21.3,0.56c-0.86,0.06-1.36,1.09-0.21,1.01c7.19-0.5,14.39-0.68,21.6-0.54
						c0.68,2.41,2.28,5.05,3.43,7.26c0.13,0.25,0.36,0.6,0.42,0.89c0,0.01,0,0.01,0.01,0.02c0,0.02,0,0.03-0.01,0.05
						c-0.07,0.89-0.8,2.06-1.13,2.89c-1,2.57-2.03,5.13-3.01,7.71C310.19,219.07,310.22,219.47,310.44,220.53z"/>
					<path class="st6" d="M308.74,176.45c-14.21-0.32-28.42-0.24-42.63,0.22c-0.87,0.03-1.35,1.06-0.2,1.02
						c14.06-0.46,28.13-0.52,42.2-0.21C308.8,177.49,309.87,176.47,308.74,176.45z"/>
					<path class="st6" d="M209.25,174.94c-5.38-0.12-10.77-0.23-16.16-0.35c-0.96-0.02-1.27,1.22-0.14,1.24
						c5.39,0.12,10.77,0.23,16.16,0.35C210.07,176.2,210.38,174.97,209.25,174.94z"/>
					<path class="st6" d="M215.84,224.98c-6.73-0.12-13.46-0.23-20.19-0.35c-0.69-0.01-1.76,1.02-0.63,1.04
						c6.73,0.12,13.46,0.23,20.19,0.35C215.9,226.02,216.96,225,215.84,224.98z"/>
					<path class="st6" d="M305.75,225.16h1.15c0.35,0,0.88-0.27,0.93-0.66c0.05-0.43-0.45-0.52-0.76-0.52h-1.15
						c-0.35,0-0.88,0.27-0.93,0.66C304.93,225.08,305.43,225.16,305.75,225.16z"/>
					<path class="st6" d="M198.16,212.99c-1.83-0.11-3.65-0.22-5.48-0.33c-0.34-0.02-0.94,0.03-1.18,0.32
						c-0.18,0.21-0.28,0.45,0.13,0.47l5.48,0.33c0.34,0.02,0.94-0.03,1.18-0.32C198.46,213.26,198.57,213.01,198.16,212.99z"/>
					<path class="st6" d="M305.58,194.2c-2.79-0.11-5.58-0.22-8.37-0.32c-0.58-0.02-1.8,0.81-0.68,0.86
						c2.79,0.11,5.58,0.22,8.37,0.32C305.48,195.08,306.7,194.25,305.58,194.2z"/>
					<path class="st6" d="M302.91,184.14h-9.81c-0.34,0-1.89,0.66-1.09,0.66h9.81C302.16,184.8,303.7,184.14,302.91,184.14z"/>
					<path class="st6" d="M255.05,285.11c-0.14-0.47-0.07-0.88,0.2-1.29c0.61-0.93-0.88-1.8-1.49-0.87
						c-0.51,0.77-0.64,1.74-0.37,2.63C253.7,286.64,255.37,286.18,255.05,285.11z"/>
					<path class="st6" d="M254.09,308.82v2.21c-0.04,0.07-0.07,0.14-0.07,0.23v20.07c0,0.73,1.34,0.56,1.34-0.08v-19.38
						c0.26-0.12,0.46-0.37,0.46-0.74v-2.31C255.82,307.7,254.09,307.7,254.09,308.82z"/>
					<path class="st6" d="M254.57,336.2c-1.11,0-1.12,1.73,0,1.73C255.68,337.93,255.68,336.2,254.57,336.2z"/>
					<path class="st6" d="M254.97,260.98c-0.12-6.54-0.24-13.07-0.36-19.61c-0.01-0.63-1.34-0.39-1.33,0.13
						c0.12,6.54,0.24,13.07,0.36,19.61C253.65,261.74,254.98,261.5,254.97,260.98z"/>
					<path class="st6" d="M247.6,290.52v-44.24c0-0.4-1.32-0.15-1.32,0.35v44.24C246.28,291.27,247.6,291.02,247.6,290.52z"/>
					<path class="st6" d="M251.26,292.01v-19.16c0-0.69-1.34-0.5-1.34,0.1v19.16C249.92,292.8,251.26,292.61,251.26,292.01z"/>
					<path class="st6" d="M245.83,148.95c-0.48,0-1.41,0.72-0.52,0.72C245.78,149.67,246.72,148.95,245.83,148.95z"/>
					<path class="st6" d="M248.56,146.75v16.88c0,0.28,1.32,0.07,1.32-0.35v-16.88C249.88,146.12,248.56,146.32,248.56,146.75z"/>
					<path class="st6" d="M245.36,153.48v12.77c0,0.62,1.33,0.38,1.33-0.13v-12.77C246.69,152.73,245.36,152.97,245.36,153.48z"/>
					<path class="st6" d="M256.76,143.43v12.31c0,0.69,1.34,0.49,1.34-0.1v-12.31C258.1,142.64,256.76,142.84,256.76,143.43z"/>
					<path class="st6" d="M247.15,307.97v-9.58c0-0.69-1.34-0.49-1.34,0.1v9.58C245.81,308.77,247.15,308.57,247.15,307.97z"/>
					<path class="st6" d="M244.87,243.65v-7.75c0-0.63-1.33-0.38-1.33,0.13v7.75C243.54,244.41,244.87,244.17,244.87,243.65z"/>
				</g>
				<g>
					<path class="st2" d="M239.49,209.71h-2.71v4.66h-4.64v-4.66h-9.6v-3.31l9.86-14.52h4.38v14.13h2.71V209.71z M232.14,206.02
						v-3.81c0-0.64,0.03-1.56,0.08-2.77c0.05-1.21,0.09-1.91,0.12-2.11h-0.12c-0.38,0.84-0.84,1.66-1.37,2.46l-4.12,6.23H232.14z"/>
					<path class="st2" d="M256.84,203.13c0,3.93-0.64,6.83-1.93,8.72s-3.27,2.83-5.94,2.83c-2.59,0-4.55-0.97-5.87-2.92
						s-1.98-4.82-1.98-8.63c0-3.97,0.64-6.89,1.92-8.77c1.28-1.88,3.25-2.82,5.92-2.82c2.59,0,4.55,0.98,5.88,2.95
						C256.17,196.46,256.84,199.34,256.84,203.13z M245.84,203.13c0,2.76,0.24,4.73,0.71,5.93c0.48,1.19,1.28,1.79,2.41,1.79
						c1.11,0,1.91-0.6,2.4-1.81c0.49-1.21,0.74-3.18,0.74-5.9c0-2.76-0.25-4.74-0.75-5.94s-1.29-1.81-2.39-1.81
						c-1.12,0-1.92,0.6-2.4,1.81S245.84,200.37,245.84,203.13z"/>
					<path class="st2" d="M275.45,209.71h-2.71v4.66h-4.64v-4.66h-9.6v-3.31l9.86-14.52h4.38v14.13h2.71V209.71z M268.09,206.02
						v-3.81c0-0.64,0.03-1.56,0.08-2.77c0.05-1.21,0.09-1.91,0.12-2.11h-0.12c-0.38,0.84-0.84,1.66-1.37,2.46l-4.12,6.23H268.09z"/>
				</g>
			</g>
		</g>
		<path class="st6" d="M170.98,328.32v5.67c0,0.43,0.97,0.25,0.97-0.11v-5.67C171.95,327.78,170.98,327.97,170.98,328.32z"/>
		<g>
			<g>
				<path class="st7" d="M165.77,333.18h14.31v-47.49c16.78-1.14,30.08-15.15,30.08-32.21c0-4.05-3.29-7.34-7.34-7.34
					c-4.05,0-7.34,3.29-7.34,7.34c0,8.96-6.73,16.38-15.4,17.47v-20.14c0-3.95-3.2-7.15-7.15-7.15c-3.95,0-7.15,3.2-7.15,7.15v36.76
					c-7.4-2.09-12.84-8.89-12.84-16.95c0-4.05-3.29-7.34-7.34-7.34s-7.34,3.29-7.34,7.34c0,16.18,11.97,29.62,27.52,31.94V333.18z"
					/>
			</g>
			<path class="st6" d="M165.02,302.6c0.56,0.55,0,4.2,0,5v19.41c0,1.91-0.2,4.08-0.05,6.17h1.52c-0.21-2.43,0.03-5.03,0.03-7.45
				v-23.17c0-0.3-0.23-0.67-0.55-0.72c-14.35-2.45-27.48-15.14-26.95-30.5c0.13-3.83,2.29-7.3,6.57-7.3c4.53,0,6.11,3.5,6.62,7.29
				c0.33,2.45,0.61,4.69,1.68,6.98c2.31,4.98,6.53,8.32,11.69,9.99c0.47,0.15,0.95-0.25,0.95-0.72v-33.94
				c0-3.13-0.06-6.47,3.17-8.35c4.61-2.69,9.16,1.09,9.64,5.77c0.09,0.89,0,1.84,0,2.73v17.16c0,0.53,0.48,0.8,0.95,0.72
				c5.55-0.92,10.42-3.9,13.35-8.78c1.22-2.04,2.02-4.3,2.38-6.64c0.5-3.23,0.12-6.5,3.48-8.46c4.62-2.7,9.48,0.85,9.91,5.69
				c-0.36,16.58-12.78,29.98-29.33,31.46c-0.4,0.04-0.75,0.31-0.75,0.75v45.66c0,0.6,0.03,1.22,0.01,1.82h1.6
				c0.19-2.57-0.11-5.32-0.11-7.79v-32.2c0-1.85-0.59-4.79,0-6.55c0.12-0.34,0.13-0.49,0.12-0.55c0.03,0,0.09-0.01,0.2-0.07
				c0.93-0.5,4.43-0.37,5.89-0.8c4.4-1.27,8.5-3.49,12.02-6.42c7.57-6.31,11.64-15.56,11.85-25.32c-0.58-6.44-7.67-10.75-13.19-6.26
				c-2.59,2.1-2.69,4.61-3.04,7.66c-0.34,3.02-1.29,5.88-3.06,8.36c-2.49,3.49-5.55,4.52-9.06,6.43c-1.69,0.92-1.35,1.47-1.72,0.35
				c-0.27-0.84,0-2.29,0-3.19v-10.22c0-4.57,0.73-9.92-3.92-12.63c-5.47-3.2-11.49,1.02-11.89,6.86c-0.29,4.13,0,8.39,0,12.53v19.18
				c0,1,0.52,3.8,0,4.72c0.37-0.65-2.6-1.82-3.72-2.55c-3.17-2.08-5.61-5.25-6.79-8.86c-1.17-3.58-0.18-7.45-2.78-10.49
				c-2.03-2.38-5.29-3.34-8.28-2.51c-7.79,2.14-6.3,11.66-4.47,17.55c2.44,7.86,7.87,14.65,14.97,18.79
				c1.6,0.93,3.28,1.73,5.02,2.38c1.17,0.44,2.64,1.08,3.9,1.19C161.58,302.65,165.61,303.17,165.02,302.6z"/>
			<path class="st6" d="M174.79,257.6v23.42c0,0.41,0.83,0.27,0.83-0.07v-23.42C175.62,257.12,174.79,257.25,174.79,257.6z"/>
			<path class="st6" d="M176.21,290.96v6.21c0,0.21,0.82,0.07,0.82-0.22v-6.21C177.03,290.54,176.21,290.68,176.21,290.96z"/>
			<path class="st6" d="M174.8,307.89v16.36c0,0.18,0.82,0.05,0.82-0.22v-16.36C175.62,307.49,174.8,307.62,174.8,307.89z"/>
			<path class="st6" d="M171.12,268.88v24.26c0,0.44,0.83,0.32,0.83-0.06v-24.26C171.95,268.38,171.12,268.49,171.12,268.88z"/>
			<path class="st6" d="M171.13,299.43v4.23c0,0.25,0.82,0.09,0.82-0.22v-4.23C171.95,298.96,171.13,299.11,171.13,299.43z"/>
			<path class="st6" d="M169.72,249.42v5.36c0,0.39,0.82,0.24,0.82-0.08v-5.36C170.54,248.95,169.72,249.1,169.72,249.42z"/>
			<path class="st6" d="M160.82,291.44c-6.65-5.38-12.41-12.63-11.95-21.64c0.01-0.16-0.8-0.05-0.82,0.22
				c-0.46,9.04,5.33,16.31,12,21.71C160.24,291.88,160.98,291.57,160.82,291.44z"/>
			<path class="st6" d="M153.87,290.68c-1.78-1.45-3.2-3.23-4.21-5.3c-0.15-0.31-0.95-0.06-0.82,0.22c1.02,2.11,2.45,3.93,4.27,5.41
				C153.36,291.21,154.12,290.89,153.87,290.68z"/>
			<path class="st6" d="M148.2,289.27c-4.61-5.06-7-11.64-6.69-18.48c0.02-0.43-0.81-0.32-0.83,0.06
				c-0.32,6.94,2.09,13.65,6.77,18.78C147.71,289.92,148.49,289.58,148.2,289.27z"/>
			<path class="st6" d="M199.49,254.5c-1.05,4.91-3.16,9.41-6.28,13.35c-0.04,0.06,0.66,0.04,0.81-0.15
				c3.11-3.94,5.23-8.44,6.28-13.35C200.34,254.19,199.54,254.31,199.49,254.5z"/>
			<path class="st6" d="M186.14,272.39c-0.91,1.16-2.27,1.72-3.74,1.52c-0.4-0.06-0.83,0.52-0.28,0.59c1.8,0.25,3.58-0.44,4.7-1.87
				C187.15,272.22,186.37,272.09,186.14,272.39z"/>
			<path class="st6" d="M204.35,249.56c-0.02-0.17-0.84-0.01-0.82,0.22c0.35,2.97-0.21,5.8-1.65,8.41
				c-0.07,0.12,0.69,0.07,0.81-0.14C204.15,255.41,204.71,252.55,204.35,249.56z"/>
			<path class="st6" d="M205.97,259.25c-3.43,10.54-12.68,18.66-23.63,20.54c-0.41,0.07-0.65,0.62-0.09,0.52
				c11.35-1.95,20.98-10.18,24.54-21.14C206.9,258.84,206.07,258.94,205.97,259.25z"/>
			<path class="st6" d="M169.27,319.31v10.67c0,0.22,0.97,0.06,0.97-0.26v-10.67C170.24,318.84,169.27,318.99,169.27,319.31z"/>
		</g>
		<g>
			<path class="st7" d="M209,343.9c0.02,1.13-1.07,1.96-1.86,2.57c-0.29,0.22-0.3,0.81-0.02,1.05c1.74,1.41,4.2,3.37,3.56,5.93
				c-0.88,3.5-5.46,1.06-7.31-0.07c-0.33-0.2-0.65-0.11-0.87,0.1l-31.58,7.69c-0.36,0.09-0.52,0.36-0.54,0.64
				c-0.03,0.08-0.06,0.17-0.06,0.27c-0.15,3.02-2.83,5.29-5.86,4.48c-1.85-0.49-3.37-2.11-2.67-4.13c0.57-1.63,2.19-2.56,3.58-3.4
				c0.62-0.37,0.41-1.35-0.34-1.38c-1.4-0.06-2.76-0.39-3.94-1.18c-1.85-1.24-2.31-3.54-0.28-4.9c2.61-1.74,5.5,0.3,7.45,2.22
				c-0.49,0.44-0.13,1.47,0.67,1.27l32.49-7.91c0.33,0.13,0.73,0.06,0.88-0.32c0.18-0.18,0.23-0.43,0.18-0.67
				c0.45-1.55,1.44-2.87,2.97-3.55C206.61,342.08,208.95,341.72,209,343.9z"/>
			<path class="st6" d="M201.07,345.72l-31.2,7.6c-2.7-2.81-7.96-6.05-11.05-1.87c-2.63,3.55,0.83,6.41,4.21,7.36
				c-1.44,1.03-2.68,2.33-2.91,4.18c-0.26,2.14,1.22,3.91,3.11,4.72c3.98,1.71,8.12-1.1,8.54-5.21l31.1-7.57
				c0.04-0.01,0.08-0.03,0.12-0.04c2.55,1.49,6.84,3.32,8.7,0.04c1.74-3.06-0.63-5.94-2.89-7.9c1.02-0.94,1.81-2.13,1.65-3.61
				c-0.15-1.43-1.25-2.38-2.63-2.61C204.69,340.27,201.91,342.88,201.07,345.72z M209,343.9c0.02,1.13-1.07,1.96-1.86,2.57
				c-0.29,0.22-0.3,0.81-0.02,1.05c1.74,1.41,4.2,3.37,3.56,5.93c-0.88,3.5-5.46,1.06-7.31-0.07c-0.33-0.2-0.65-0.11-0.87,0.1
				l-31.58,7.69c-0.36,0.09-0.52,0.36-0.54,0.64c-0.03,0.08-0.06,0.17-0.06,0.27c-0.15,3.02-2.83,5.29-5.86,4.48
				c-1.85-0.49-3.37-2.11-2.67-4.13c0.57-1.63,2.19-2.56,3.58-3.4c0.62-0.37,0.41-1.35-0.34-1.38c-1.4-0.06-2.76-0.39-3.94-1.18
				c-1.85-1.24-2.31-3.54-0.28-4.9c2.61-1.74,5.5,0.3,7.45,2.22c-0.49,0.44-0.13,1.47,0.67,1.27l32.49-7.91
				c0.33,0.13,0.73,0.06,0.88-0.32c0.18-0.18,0.23-0.43,0.18-0.67c0.45-1.55,1.44-2.87,2.97-3.55
				C206.61,342.08,208.95,341.72,209,343.9z"/>
			<path class="st6" d="M169.16,357.84l21.3-5.19c0.46-0.11,0-1.11-0.37-1.01l-21.3,5.19C168.33,356.94,168.79,357.93,169.16,357.84
				z"/>
			<path class="st6" d="M194.19,352l3.59-0.87c0.17-0.04-0.23-1.05-0.53-0.97l-3.59,0.87C193.48,351.07,193.89,352.07,194.19,352z"
				/>
		</g>
		<g>
			<path class="st6" d="M205.51,289.57c0-1.55,1.26-2.8,2.8-2.8c1.55,0,2.8,1.26,2.8,2.8c0,3.42,2.57,6.26,5.88,6.67v-7.69
				c0-1.51,1.22-2.73,2.73-2.73l0,0c1.51,0,2.73,1.22,2.73,2.73v14.04c2.83-0.8,4.91-3.4,4.91-6.48c0-1.55,1.25-2.8,2.8-2.8
				c1.55,0,2.8,1.25,2.8,2.8c0,6.18-4.57,11.32-10.51,12.2v11.88c0,1.51-1.22,2.73-2.73,2.73l0,0c-1.51,0-2.73-1.22-2.73-2.73
				v-18.32C210.59,301.44,205.51,296.09,205.51,289.57z"/>
		</g>
		<g>
			<path class="st6" d="M347.31,312.64c0-1.39,1.13-2.52,2.52-2.52s2.52,1.13,2.52,2.52c0,3.07,2.31,5.62,5.28,5.99v-6.91
				c0-1.36,1.1-2.45,2.45-2.45l0,0c1.36,0,2.45,1.1,2.45,2.45v12.61c2.54-0.72,4.4-3.05,4.4-5.81c0-1.39,1.13-2.52,2.52-2.52
				c1.39,0,2.52,1.13,2.52,2.52c0,5.55-4.11,10.16-9.44,10.95v10.66c0,1.36-1.1,2.45-2.45,2.45l0,0c-1.36,0-2.45-1.1-2.45-2.45
				v-16.45C351.87,323.3,347.31,318.5,347.31,312.64z"/>
		</g>
		<g>
			<g>
				<g>
					<path class="st7" d="M357.27,277.03c-3.32,0-6.01,2.69-6.01,6v0.32c0,5.17-4.2,9.37-9.37,9.37h-3.52v-32.27
						c0-3.8-3.08-6.89-6.89-6.89c-3.8,0-6.89,3.08-6.89,6.89v17.84c-3.61-0.18-6.49-3.17-6.49-6.82v-0.93c0-3.32-2.69-6-6.01-6
						c-3.32,0-6,2.69-6,6v0.93c0,10.27,8.27,18.65,18.5,18.84v15.86h-3.84c-5.17,0-9.37-4.2-9.37-9.37c0-3.32-2.69-6-6-6
						c-3.32,0-6,2.69-6,6c0,11.79,9.59,21.38,21.38,21.38h3.84v13.23h13.77v-26.68h3.52c11.79,0,21.38-9.59,21.38-21.38v-0.32
						C363.28,279.72,360.59,277.03,357.27,277.03z"/>
				</g>
				<path class="st6" d="M357.58,276.37c-0.09-0.04-0.19-0.06-0.31-0.04c-0.13-0.01-0.23,0.01-0.32,0.05
					c-2.6,0.34-4.85,1.57-5.89,4.13c-0.68,1.66-0.33,3.43-0.81,5.14c-1.1,3.99-4.65,6.14-8.62,6.37c-0.85,0.05-2.28-0.35-2.64,0.01
					c0.01-0.35,0.06-0.73,0.07-0.91c0.19-2.55,0-5.19,0-7.75v-19.2c0-4.37-0.03-9.04-5-10.85c-5.44-1.98-9.98,2.41-10.17,7.66
					c-0.09,2.63,0,5.29,0,7.92c0,2.01,0.91,7.01,0,8.85c-0.02,0.03-0.02,0.05-0.03,0.07c-0.03,0-0.06,0-0.11,0.01
					c-0.74,0.2-3.93-2.96-4.16-3.37c-1.17-2.09-0.42-4.34-1.28-6.45c-1.01-2.49-3.52-4.18-6.21-4.18c-8.08,0-7.35,9.93-5.23,15.07
					c1.29,3.12,3.39,5.88,6.06,7.96c1.31,1.02,2.74,1.88,4.27,2.54c1.12,0.49,2.28,0.87,3.47,1.14c0.03,0.01,3.35,0.47,2.93,0.12
					c0.2,0.17,0.28,0.61,0.28,1.79v3.97c0,2.7,0.69,6.48,0.01,9.13c-0.42,0.02-0.94-0.04-1.23-0.08c-2.24-0.28-4.14,0.08-6.29-1.19
					c-5.43-3.18-2.49-9.66-7.15-12.96c-6.13-4.34-11.08,2.29-10.4,8.05c0.91,7.73,6,14.56,13.14,17.67
					c3.31,1.44,6.72,1.81,10.29,1.83c0.52,0,1.05,0.01,1.57,0c0.06,0,0.11-0.01,0.16-0.01c0.14,0.93-0.1,2.26-0.1,3.11
					c0,2.6-0.46,6.15-0.25,9.43h1.64c-0.21-4.39,0-8.84,0-13.23c0-0.38-0.32-0.7-0.7-0.7c-5.02,0-9.78-0.19-14.27-2.83
					c-6.04-3.54-12.45-12.54-9.47-19.73c0.41-2.24,1.92-3.39,4.53-3.43c3.23,0.3,5,2.07,5.31,5.31c0.28,1.09,0.18,2.14,0.56,3.25
					c0.64,1.87,1.79,3.5,3.36,4.71c3,2.32,6.42,2.1,9.99,2.1c0.38,0,0.7-0.32,0.7-0.7v-15.86c0-0.39-0.32-0.68-0.7-0.7
					c-8.95-0.46-19.78-8.9-17.8-19.07c0.56-2.86,2.33-4.89,5.31-5.31c3.7-0.51,4.75,3.26,5.31,5.77c0.23,1.02,0.09,2.02,0.46,3.05
					c1.04,2.9,3.6,4.5,6.54,4.91c0.44,0.06,0.88-0.17,0.88-0.67v-15.22c0-4,0.99-8.8,6.19-8.8c4.79,0,6.19,4.38,6.19,8.24v30.21
					c0,0.38,0.32,0.7,0.7,0.7c3.49,0,6.83,0.13,9.74-2.16c1.68-1.32,2.92-3.17,3.49-5.23c1.01-3.65,0.1-7.74,5.67-8.3
					c11.21,1.13,2.54,17.35-1.65,21.07c-5.01,4.45-10.84,5.23-17.25,5.23c-0.38,0-0.7,0.32-0.7,0.7v26.1c0,0.19,0,0.39,0,0.58h1.63
					c0.35-4.44-0.23-9.27-0.23-13.55v-9.73c0-0.74-0.17-1.82-0.07-2.64c0.35,0.19,1.3-0.06,1.98-0.07
					c8.61-0.08,16.53-4.17,20.56-12.02C364.49,287.68,366.16,277.49,357.58,276.37z"/>
			</g>
			<path class="st6" d="M334.16,283.04v21.12c0,0.24,0.9,0.08,0.9-0.24V282.8C335.06,282.56,334.16,282.71,334.16,283.04z"/>
			<path class="st6" d="M329.81,291.04v6.06c0,0.39,0.9,0.21,0.9-0.1v-6.06C330.71,290.55,329.81,290.73,329.81,291.04z"/>
			<path class="st6" d="M330.28,308.19v13.82c0,0.14,0.9,0.01,0.9-0.24v-13.82C331.18,307.81,330.28,307.94,330.28,308.19z"/>
			<path class="st6" d="M332.76,258.35v9.78c0,0.17,0.9,0.04,0.9-0.24v-9.78C333.66,257.93,332.76,258.07,332.76,258.35z"/>
			<path class="st6" d="M328.57,263.4v2.79c0,0.41,0.9,0.24,0.9-0.1v-2.79C329.47,262.89,328.57,263.06,328.57,263.4z"/>
			<path class="st6" d="M355.84,285.43c-1.21,2.81-2.44,5.77-4.65,7.96c-3.04,3.01-6.8,3.13-10.82,2.89
				c-0.42-0.02-0.93,0.59-0.32,0.62c3.49,0.21,7.08,0.29,10.09-1.76c3.33-2.27,5.01-6.05,6.55-9.63
				C356.89,285.05,355.99,285.08,355.84,285.43z"/>
			<path class="st6" d="M358.14,290.21c-0.74,1.9-1.89,3.54-3.4,4.9c-0.22,0.19,0.64,0.12,0.82-0.04c1.55-1.38,2.72-3.07,3.47-5
				C359.12,289.86,358.24,289.95,358.14,290.21z"/>
			<path class="st6" d="M335.07,331.41v-13.12c0-0.49-0.91-0.37-0.91,0.06v13.06H335.07z"/>
			<path class="st6" d="M334.62,312.06v1.86c0,0.48,0.91,0.35,0.91-0.06V312C335.53,311.52,334.62,311.65,334.62,312.06z"/>
			<path class="st6" d="M319.5,309.5c-6.49-0.89-11.28-5.79-12.11-12.27c-0.04-0.31-0.94-0.1-0.9,0.24
				c0.85,6.64,5.85,11.62,12.46,12.53C319.25,310.04,320.01,309.57,319.5,309.5z"/>
			<path class="st6" d="M318.57,313.09c-0.82,0.03-1.59-0.12-2.34-0.44c-0.4-0.17-1.04,0.41-0.51,0.63c0.89,0.37,1.82,0.53,2.78,0.5
				C319.02,313.76,319.18,313.07,318.57,313.09z"/>
			<path class="st6" d="M317.81,284.4c-1.99-0.05-4.46-3.43-5.56-4.9c-1.72-2.3-2.74-4.91-2.3-7.81c0.05-0.32-0.85-0.15-0.9,0.13
				c-0.47,3.11,0.68,5.91,2.6,8.32c1.34,1.69,3.43,4.68,5.8,4.73C317.76,284.87,318.41,284.41,317.81,284.4z"/>
			<path class="st6" d="M318.45,278.97c-1.47-0.25-2.59-1.45-2.8-2.91c-0.02-0.16-0.93,0.02-0.9,0.24c0.22,1.54,1.43,2.75,2.96,3.01
				c0.19,0.03,0.46-0.02,0.63-0.12C318.4,279.15,318.66,279,318.45,278.97z"/>
			<path class="st6" d="M327.17,275.35v8.38c0,0.22,0.9,0.07,0.9-0.24v-8.38C328.07,274.89,327.17,275.04,327.17,275.35z"/>
			<path class="st6" d="M334.39,273.19v3.26c0,0.39,0.9,0.21,0.9-0.11v-3.26C335.29,272.69,334.39,272.87,334.39,273.19z"/>
		</g>
		<g>
			<path class="st5" d="M136.74,315.83c-1.14,0-2.06,0.92-2.06,2.06v0.11c0,1.77-1.44,3.21-3.21,3.21h-1.21v-11.05
				c0-1.3-1.06-2.36-2.36-2.36l0,0c-1.3,0-2.36,1.06-2.36,2.36v6.11c-1.24-0.06-2.22-1.08-2.22-2.34v-0.32
				c0-1.14-0.92-2.06-2.06-2.06s-2.06,0.92-2.06,2.06v0.32c0,3.52,2.83,6.39,6.34,6.45v5.43h-1.32c-1.77,0-3.21-1.44-3.21-3.21
				c0-1.14-0.92-2.06-2.06-2.06c-1.14,0-2.06,0.92-2.06,2.06c0,4.04,3.29,7.32,7.32,7.32h1.32v5.02c0,1.3,1.06,2.36,2.36,2.36l0,0
				c1.3,0,2.36-1.06,2.36-2.36v-9.63h1.21c4.04,0,7.32-3.29,7.32-7.32v-0.11C138.79,316.75,137.87,315.83,136.74,315.83z"/>
		</g>
		<g>
			<path class="st7" d="M355.96,355.17c-0.96-0.16-1.95-0.11-2.87,0.17c-0.11,0.03-0.25,0.07-0.39,0.11
				c0.54-1.46,0.86-3.02,1.25-4.54c0.07-0.26-0.19-0.53-0.46-0.39c-1.14,0.6-2.21,1.31-3.19,2.11c-0.18-2.38-1.69-4.59-2.76-6.65
				c-0.11-0.21-0.43-0.25-0.56-0.04c-1.02,1.59-1.74,3.29-2.17,5.11c-0.22-0.33-0.46-0.64-0.73-0.93c-0.54-0.59-1.73-1.8-2.63-1.6
				c-0.96,0.22-0.54,1.83-0.49,2.5c0.1,1.27,0.27,2.53,0.57,3.77c-1.29,0.13-2.54,0.43-3.72,0.99c-1.24,0.58-1.67,0.96-0.56,1.96
				c2.45,2.21,5.19,4.36,8.64,4.39c0,0,0.01,0.01,0.01,0.01c0.04,0.04,0.09,0.06,0.13,0.07c0.09,0.06,0.21,0.08,0.32,0.04
				c0.18-0.01,0.36-0.08,0.53-0.17c3.85-0.76,7.22-2.96,10.35-5.24C358.56,355.87,356.95,355.34,355.96,355.17z"/>
			<path class="st6" d="M355.96,355.17c-0.96-0.16-1.95-0.11-2.87,0.17c-0.11,0.03-0.25,0.07-0.39,0.11
				c0.54-1.46,0.86-3.02,1.25-4.54c0.07-0.26-0.19-0.53-0.46-0.39c-1.14,0.6-2.21,1.31-3.19,2.11c-0.18-2.38-1.69-4.59-2.76-6.65
				c-0.11-0.21-0.43-0.25-0.56-0.04c-1.02,1.59-1.74,3.29-2.17,5.11c-0.22-0.33-0.46-0.64-0.73-0.93c-0.54-0.59-1.73-1.8-2.63-1.6
				c-0.96,0.22-0.54,1.83-0.49,2.5c0.1,1.27,0.27,2.53,0.57,3.77c-1.29,0.13-2.54,0.43-3.72,0.99c-1.24,0.58-1.67,0.96-0.56,1.96
				c2.45,2.21,5.19,4.36,8.64,4.39c0,0,0.01,0.01,0.01,0.01c0.04,0.04,0.09,0.06,0.13,0.07c0.09,0.06,0.21,0.08,0.32,0.04
				c0.18-0.01,0.36-0.08,0.53-0.17c3.85-0.76,7.22-2.96,10.35-5.24C358.56,355.87,356.95,355.34,355.96,355.17z M339.19,358.55
				c-0.52-0.42-1.18-0.86-1.59-1.39c-0.23-0.3-0.34-0.18-0.1-0.51c0.13-0.18,0.58-0.3,0.77-0.38c1.09-0.49,2.25-0.76,3.43-0.87
				c0.01,0.04,0.02,0.08,0.03,0.13c0.47,1.61,1.18,3.11,2.15,4.44c-1.47-0.71-2.76-1.73-3.8-3.01c-0.06-0.07-0.31,0-0.25,0.08
				c1.16,1.43,2.63,2.53,4.3,3.26c0.31,0.39,0.63,0.77,0.99,1.12C342.89,361.17,340.93,359.98,339.19,358.55z M346.17,361.08
				c-1.03-2.84-2-5.71-2.9-8.6c-0.04-0.12-0.3-0.07-0.26,0.05c0.92,2.93,1.9,5.84,2.95,8.72c0.02,0.05,0.08,0.07,0.14,0.06
				c-0.02,0.02-0.04,0.04-0.06,0.06c-0.29-0.26-0.57-0.53-0.83-0.82c0.01-0.02,0.01-0.04-0.04-0.06c-0.01,0-0.02-0.01-0.02-0.01
				c-1.08-1.19-1.89-2.6-2.45-4.12c-0.17-0.45-0.3-0.91-0.43-1.38c0-0.05-0.01-0.09-0.04-0.13c-0.16-0.63-0.29-1.26-0.39-1.89
				c-0.09-0.57-0.16-1.14-0.21-1.71c-0.03-0.35-0.05-0.71-0.07-1.06c-0.02-0.38-0.2-0.7,0.23-0.83c0.9-0.26,2.2,1.55,2.6,2.19
				c0.6,0.95,0.99,2.02,1.27,3.1c0.21,0.82,0.41,1.69,0.55,2.58c-0.01,0.05,0,0.1,0.02,0.14
				C346.41,358.62,346.45,359.9,346.17,361.08z M346.99,355.92c0-0.09,0-0.17,0-0.26c0-0.33,0-0.67,0.01-1
				c0.01-0.51,0.03-1.02,0.06-1.54c0.06-1.02,0.15-2.04,0.28-3.06c0.02-0.14-0.25-0.13-0.26-0.01c-0.15,1.19-0.26,2.38-0.31,3.57
				c-0.02,0.52-0.03,1.04-0.04,1.56c0,0.25-0.06,0.59-0.03,0.89c-0.21-0.99-0.48-1.94-0.78-2.8c-0.17-0.49-0.38-0.97-0.62-1.44
				c0.35-1.82,1-3.51,1.94-5.09c1.08,1.97,2.47,4.13,2.44,6.39c-0.98,0.86-1.86,1.83-2.65,2.88
				C347.01,355.99,347,355.96,346.99,355.92z M346.77,361.39c0.09-0.36,0.16-0.74,0.2-1.12c1.48-1.69,2.83-3.49,4.02-5.39
				c0.08-0.13-0.18-0.16-0.24-0.06c-1.11,1.78-2.36,3.46-3.73,5.05c0.06-0.85,0.02-1.72-0.1-2.59c0.91-1.36,1.97-2.58,3.18-3.64
				c0.09-0.02,0.16-0.08,0.2-0.17c0.88-0.76,1.84-1.44,2.86-2.02c-0.35,1.46-0.66,2.99-1.26,4.37c-0.11,0.09-0.2,0.2-0.24,0.34
				c-0.02,0.05-0.02,0.11,0,0.17c-0.16,0.31-0.33,0.61-0.53,0.9c-0.62,0.91-1.4,1.7-2.23,2.42c-0.37,0.32-0.74,0.62-1.13,0.91
				C347.65,360.64,347.15,361.1,346.77,361.39z M356.53,356.54c-0.24,0.17-0.47,0.33-0.71,0.5c-0.64,0.45-1.29,0.89-1.95,1.31
				c-1.81,1.15-3.7,2.15-5.75,2.75c0.02-0.02,0.05-0.04,0.07-0.05c0.54-0.42,1.07-0.85,1.58-1.32c1.45-1.06,2.96-2.04,4.52-2.93
				c0.12-0.07-0.14-0.07-0.2-0.04c-1.25,0.71-2.47,1.48-3.65,2.3c0.2-0.21,0.39-0.42,0.58-0.64c0.5-0.59,0.88-1.23,1.21-1.89
				c0.06-0.03,0.1-0.09,0.12-0.16c0-0.02,0.01-0.04,0.01-0.06c0.01-0.03,0.01-0.05,0.01-0.08c0-0.01,0.01-0.02,0.01-0.03
				c0.43-0.32,1.89-0.47,2.22-0.49c0.61-0.03,1.7-0.05,2.2,0.33c0.1,0.03,0.2,0.06,0.3,0.08
				C356.91,356.27,356.72,356.41,356.53,356.54z"/>
		</g>
		<g>
			<path class="st7" d="M151.05,362.89c-0.96-0.16-1.95-0.11-2.87,0.17c-0.11,0.03-0.25,0.07-0.39,0.11
				c0.54-1.46,0.86-3.02,1.25-4.54c0.07-0.26-0.19-0.53-0.46-0.39c-1.14,0.6-2.21,1.31-3.19,2.11c-0.18-2.38-1.69-4.59-2.76-6.65
				c-0.11-0.21-0.43-0.25-0.56-0.04c-1.02,1.59-1.74,3.29-2.17,5.11c-0.22-0.33-0.46-0.64-0.73-0.93c-0.54-0.59-1.73-1.8-2.63-1.6
				c-0.96,0.22-0.54,1.83-0.49,2.5c0.1,1.27,0.27,2.53,0.57,3.77c-1.29,0.13-2.54,0.43-3.72,0.99c-1.24,0.58-1.67,0.96-0.56,1.96
				c2.45,2.21,5.19,4.36,8.64,4.39c0,0,0.01,0.01,0.01,0.01c0.04,0.04,0.09,0.06,0.13,0.07c0.09,0.06,0.22,0.08,0.32,0.04
				c0.18-0.01,0.36-0.08,0.53-0.17c3.85-0.76,7.22-2.96,10.35-5.24C153.65,363.59,152.04,363.06,151.05,362.89z"/>
			<path class="st6" d="M151.05,362.89c-0.96-0.16-1.95-0.11-2.87,0.17c-0.11,0.03-0.25,0.07-0.39,0.11
				c0.54-1.46,0.86-3.02,1.25-4.54c0.07-0.26-0.19-0.53-0.46-0.39c-1.14,0.6-2.21,1.31-3.19,2.11c-0.18-2.38-1.69-4.59-2.76-6.65
				c-0.11-0.21-0.43-0.25-0.56-0.04c-1.02,1.59-1.74,3.29-2.17,5.11c-0.22-0.33-0.46-0.64-0.73-0.93c-0.54-0.59-1.73-1.8-2.63-1.6
				c-0.96,0.22-0.54,1.83-0.49,2.5c0.1,1.27,0.27,2.53,0.57,3.77c-1.29,0.13-2.54,0.43-3.72,0.99c-1.24,0.58-1.67,0.96-0.56,1.96
				c2.45,2.21,5.19,4.36,8.64,4.39c0,0,0.01,0.01,0.01,0.01c0.04,0.04,0.09,0.06,0.13,0.07c0.09,0.06,0.22,0.08,0.32,0.04
				c0.18-0.01,0.36-0.08,0.53-0.17c3.85-0.76,7.22-2.96,10.35-5.24C153.65,363.59,152.04,363.06,151.05,362.89z M134.28,366.27
				c-0.52-0.42-1.18-0.86-1.59-1.39c-0.23-0.3-0.34-0.18-0.1-0.51c0.13-0.18,0.58-0.3,0.77-0.38c1.09-0.49,2.25-0.76,3.43-0.87
				c0.01,0.04,0.02,0.08,0.03,0.13c0.47,1.61,1.18,3.11,2.15,4.44c-1.47-0.71-2.76-1.73-3.8-3.01c-0.06-0.07-0.31,0-0.25,0.08
				c1.16,1.43,2.63,2.53,4.3,3.26c0.31,0.39,0.63,0.77,0.99,1.12C137.98,368.88,136.02,367.7,134.28,366.27z M141.26,368.8
				c-1.03-2.84-2-5.71-2.9-8.6c-0.04-0.12-0.3-0.07-0.26,0.05c0.92,2.93,1.9,5.84,2.95,8.72c0.02,0.05,0.08,0.07,0.14,0.06
				c-0.02,0.02-0.04,0.04-0.06,0.06c-0.29-0.26-0.57-0.53-0.83-0.82c0.01-0.02,0.01-0.04-0.04-0.06c-0.01,0-0.02-0.01-0.02-0.01
				c-1.08-1.19-1.89-2.6-2.45-4.12c-0.17-0.45-0.3-0.91-0.43-1.38c0-0.05-0.01-0.09-0.04-0.13c-0.16-0.63-0.29-1.26-0.39-1.89
				c-0.09-0.57-0.16-1.14-0.21-1.71c-0.03-0.35-0.05-0.71-0.07-1.06c-0.02-0.38-0.2-0.7,0.23-0.83c0.9-0.26,2.2,1.55,2.6,2.19
				c0.6,0.95,0.99,2.02,1.27,3.1c0.21,0.82,0.41,1.69,0.55,2.58c0,0.05,0,0.1,0.02,0.14C141.5,366.34,141.54,367.61,141.26,368.8z
				 M142.08,363.64c0-0.09,0-0.17,0-0.26c0-0.33,0-0.67,0.01-1c0.01-0.51,0.03-1.02,0.06-1.54c0.06-1.02,0.15-2.04,0.28-3.06
				c0.02-0.14-0.25-0.13-0.26-0.01c-0.15,1.19-0.26,2.38-0.31,3.57c-0.02,0.52-0.03,1.04-0.04,1.56c0,0.25-0.06,0.59-0.03,0.89
				c-0.21-0.99-0.48-1.94-0.78-2.8c-0.17-0.49-0.38-0.97-0.62-1.44c0.35-1.82,1-3.51,1.94-5.09c1.08,1.97,2.47,4.13,2.44,6.39
				c-0.98,0.86-1.86,1.83-2.65,2.88C142.1,363.71,142.09,363.68,142.08,363.64z M141.86,369.1c0.09-0.36,0.16-0.74,0.2-1.12
				c1.48-1.69,2.83-3.49,4.02-5.39c0.08-0.13-0.18-0.16-0.24-0.06c-1.11,1.78-2.36,3.46-3.73,5.05c0.06-0.85,0.02-1.72-0.1-2.59
				c0.91-1.36,1.97-2.58,3.18-3.64c0.09-0.02,0.16-0.08,0.2-0.17c0.88-0.76,1.84-1.44,2.86-2.02c-0.35,1.46-0.66,2.99-1.26,4.37
				c-0.11,0.09-0.2,0.2-0.24,0.34c-0.02,0.05-0.02,0.11,0,0.17c-0.16,0.31-0.33,0.61-0.53,0.9c-0.62,0.91-1.4,1.7-2.23,2.42
				c-0.37,0.32-0.74,0.62-1.13,0.91C142.74,368.36,142.24,368.82,141.86,369.1z M151.63,364.26c-0.24,0.17-0.47,0.33-0.71,0.5
				c-0.64,0.45-1.29,0.89-1.95,1.31c-1.81,1.15-3.7,2.15-5.75,2.75c0.02-0.02,0.05-0.04,0.07-0.05c0.54-0.42,1.07-0.85,1.58-1.32
				c1.45-1.06,2.96-2.04,4.52-2.93c0.12-0.07-0.14-0.07-0.2-0.04c-1.25,0.71-2.47,1.48-3.65,2.3c0.2-0.21,0.39-0.42,0.58-0.64
				c0.5-0.59,0.88-1.22,1.21-1.89c0.06-0.03,0.1-0.09,0.12-0.16c0-0.02,0.01-0.04,0.01-0.06c0.01-0.03,0.01-0.05,0.01-0.08
				c0-0.01,0.01-0.02,0.01-0.03c0.43-0.32,1.89-0.47,2.22-0.49c0.61-0.03,1.7-0.05,2.2,0.33c0.1,0.03,0.2,0.06,0.3,0.08
				C152,363.99,151.81,364.12,151.63,364.26z"/>
		</g>
		<g>
			<g>
				<path class="st7" d="M267.62,338.03c-1.53-0.31-3.13-0.27-4.63,0.12c-0.18,0.05-0.4,0.1-0.63,0.16
					c0.95-2.32,1.53-4.82,2.24-7.25c0.12-0.41-0.28-0.87-0.71-0.66c-1.87,0.91-3.62,1.99-5.24,3.23c-0.18-3.84-2.49-7.47-4.12-10.85
					c-0.17-0.35-0.68-0.42-0.9-0.09c-1.71,2.5-2.96,5.2-3.74,8.11c-0.34-0.54-0.71-1.05-1.12-1.53c-0.84-0.98-2.7-2.98-4.15-2.7
					c-1.56,0.3-0.96,2.92-0.91,4.01c0.1,2.04,0.31,4.08,0.73,6.09c-2.08,0.14-4.11,0.57-6.03,1.4c-2.02,0.87-2.74,1.46-0.99,3.13
					c3.84,3.67,8.13,7.28,13.68,7.5c0.01,0.01,0.01,0.01,0.02,0.02c0.07,0.06,0.14,0.09,0.21,0.11c0.14,0.11,0.34,0.14,0.52,0.09
					c0.29-0.01,0.58-0.1,0.86-0.25c6.24-1.03,11.77-4.41,16.92-7.92C271.77,339.29,269.21,338.35,267.62,338.03z"/>
				<path class="st6" d="M267.62,338.03c-1.53-0.31-3.13-0.27-4.63,0.12c-0.18,0.05-0.4,0.1-0.63,0.16
					c0.95-2.32,1.53-4.82,2.24-7.25c0.12-0.41-0.28-0.87-0.71-0.66c-1.87,0.91-3.62,1.99-5.24,3.23c-0.18-3.84-2.49-7.47-4.12-10.85
					c-0.17-0.35-0.68-0.42-0.9-0.09c-1.71,2.5-2.96,5.2-3.74,8.11c-0.34-0.54-0.71-1.05-1.12-1.53c-0.84-0.98-2.7-2.98-4.15-2.7
					c-1.56,0.3-0.96,2.92-0.91,4.01c0.1,2.04,0.31,4.08,0.73,6.09c-2.08,0.14-4.11,0.57-6.03,1.4c-2.02,0.87-2.74,1.46-0.99,3.13
					c3.84,3.67,8.13,7.28,13.68,7.5c0.01,0.01,0.01,0.01,0.02,0.02c0.07,0.06,0.14,0.09,0.21,0.11c0.14,0.11,0.34,0.14,0.52,0.09
					c0.29-0.01,0.58-0.1,0.86-0.25c6.24-1.03,11.77-4.41,16.92-7.92C271.77,339.29,269.21,338.35,267.62,338.03z M240.47,342.64
					c-0.81-0.71-1.86-1.45-2.49-2.31c-0.36-0.49-0.54-0.31-0.14-0.83c0.21-0.28,0.95-0.45,1.26-0.58c1.78-0.73,3.65-1.12,5.57-1.22
					c0.02,0.07,0.03,0.14,0.05,0.21c0.67,2.61,1.74,5.07,3.24,7.25c-2.33-1.22-4.35-2.92-5.97-5.04c-0.09-0.12-0.5-0.01-0.4,0.12
					c1.8,2.35,4.11,4.2,6.76,5.46c0.48,0.64,0.98,1.26,1.54,1.85C246.29,347.03,243.2,345.02,240.47,342.64z M251.57,347.06
					c-1.52-4.63-2.93-9.29-4.25-13.98c-0.05-0.19-0.48-0.12-0.43,0.06c1.33,4.76,2.77,9.48,4.31,14.18
					c0.03,0.08,0.13,0.11,0.22,0.11c-0.03,0.03-0.07,0.05-0.1,0.09c-0.46-0.43-0.88-0.88-1.29-1.35c0.02-0.03,0.01-0.07-0.06-0.1
					c-0.01-0.01-0.03-0.01-0.04-0.02c-1.68-1.97-2.91-4.28-3.73-6.75c-0.24-0.74-0.44-1.49-0.62-2.24c0-0.08-0.02-0.15-0.05-0.21
					c-0.23-1.01-0.4-2.04-0.53-3.07c-0.11-0.92-0.2-1.84-0.25-2.77c-0.03-0.57-0.05-1.14-0.07-1.72c-0.01-0.61-0.28-1.14,0.4-1.32
					c1.46-0.37,3.46,2.61,4.07,3.65c0.92,1.56,1.49,3.29,1.88,5.05c0.3,1.33,0.58,2.74,0.76,4.17c-0.01,0.08,0,0.15,0.03,0.23
					C252.08,343.11,252.08,345.16,251.57,347.06z M253.15,338.79c0-0.14,0.01-0.27,0.01-0.41c0.01-0.54,0.03-1.07,0.06-1.61
					c0.04-0.82,0.1-1.65,0.17-2.47c0.14-1.64,0.35-3.28,0.61-4.91c0.03-0.22-0.39-0.21-0.42-0.02c-0.3,1.9-0.53,3.81-0.67,5.73
					c-0.06,0.84-0.11,1.67-0.14,2.51c-0.01,0.39-0.12,0.95-0.09,1.42c-0.28-1.6-0.68-3.15-1.12-4.55c-0.25-0.8-0.56-1.59-0.93-2.34
					c0.66-2.91,1.78-5.59,3.37-8.09c1.64,3.23,3.77,6.77,3.61,10.41c-1.62,1.34-3.09,2.85-4.41,4.5
					C253.17,338.91,253.17,338.85,253.15,338.79z M252.52,347.58c0.17-0.58,0.29-1.18,0.38-1.79c2.47-2.64,4.72-5.47,6.73-8.48
					c0.13-0.2-0.28-0.26-0.39-0.1c-1.88,2.81-3.98,5.45-6.26,7.94c0.14-1.36,0.11-2.77-0.03-4.17c1.53-2.14,3.31-4.05,5.3-5.71
					c0.14-0.03,0.26-0.12,0.33-0.26c1.46-1.18,3.02-2.22,4.7-3.12c-0.63,2.33-1.21,4.78-2.24,6.97c-0.18,0.14-0.33,0.32-0.4,0.53
					c-0.03,0.09-0.03,0.18-0.01,0.28c-0.27,0.49-0.56,0.97-0.89,1.42c-1.04,1.44-2.33,2.66-3.71,3.78c-0.6,0.49-1.23,0.96-1.86,1.41
					C253.98,346.43,253.15,347.14,252.52,347.58z M268.48,340.26c-0.39,0.26-0.77,0.51-1.16,0.76c-1.05,0.69-2.12,1.36-3.2,2.01
					c-2.96,1.76-6.07,3.27-9.39,4.14c0.04-0.03,0.07-0.06,0.11-0.08c0.89-0.65,1.77-1.32,2.6-2.04c2.39-1.64,4.86-3.13,7.43-4.48
					c0.19-0.1-0.23-0.11-0.32-0.07c-2.05,1.08-4.05,2.26-5.99,3.53c0.33-0.32,0.65-0.65,0.96-1c0.83-0.92,1.48-1.93,2.04-2.98
					c0.09-0.05,0.17-0.14,0.2-0.25c0.01-0.03,0.02-0.06,0.02-0.09c0.01-0.04,0.02-0.08,0.02-0.12c0.01-0.01,0.01-0.03,0.02-0.04
					c0.7-0.5,3.07-0.67,3.6-0.67c0.98-0.01,2.73,0.01,3.52,0.63c0.16,0.05,0.31,0.1,0.47,0.15
					C269.1,339.85,268.79,340.05,268.48,340.26z"/>
			</g>
			<g>
				<path class="st7" d="M253.33,335.54c-1.23,0.19-2.41,0.66-3.43,1.37c-0.12,0.09-0.27,0.18-0.43,0.29
					c0.07-1.99-0.18-4.02-0.32-6.03c-0.02-0.34-0.45-0.57-0.71-0.29c-1.14,1.19-2.15,2.48-3.03,3.86c-1.19-2.82-3.92-4.9-6.06-6.97
					c-0.22-0.21-0.62-0.12-0.7,0.18c-0.59,2.34-0.78,4.7-0.56,7.09c-0.4-0.31-0.82-0.59-1.26-0.84c-0.9-0.5-2.83-1.48-3.84-0.87
					c-1.08,0.65,0.08,2.45,0.42,3.24c0.63,1.5,1.35,2.97,2.22,4.35c-1.52,0.68-2.91,1.56-4.12,2.71c-1.27,1.2-1.64,1.84,0.12,2.61
					c3.88,1.69,8.08,3.2,12.28,1.84c0.01,0,0.01,0.01,0.02,0.01c0.07,0.03,0.13,0.03,0.19,0.03c0.13,0.04,0.29,0.01,0.41-0.08
					c0.21-0.09,0.4-0.24,0.58-0.42c4.38-2.49,7.58-6.53,10.46-10.56C256.77,335.34,254.61,335.35,253.33,335.54z"/>
				<path class="st6" d="M253.33,335.54c-1.23,0.19-2.41,0.66-3.43,1.37c-0.12,0.09-0.27,0.18-0.43,0.29
					c0.07-1.99-0.18-4.02-0.32-6.03c-0.02-0.34-0.45-0.57-0.71-0.29c-1.14,1.19-2.15,2.48-3.03,3.86c-1.19-2.82-3.92-4.9-6.06-6.97
					c-0.22-0.21-0.62-0.12-0.7,0.18c-0.59,2.34-0.78,4.7-0.56,7.09c-0.4-0.31-0.82-0.59-1.26-0.84c-0.9-0.5-2.83-1.48-3.84-0.87
					c-1.08,0.65,0.08,2.45,0.42,3.24c0.63,1.5,1.35,2.97,2.22,4.35c-1.52,0.68-2.91,1.56-4.12,2.71c-1.27,1.2-1.64,1.84,0.12,2.61
					c3.88,1.69,8.08,3.2,12.28,1.84c0.01,0,0.01,0.01,0.02,0.01c0.07,0.03,0.13,0.03,0.19,0.03c0.13,0.04,0.29,0.01,0.41-0.08
					c0.21-0.09,0.4-0.24,0.58-0.42c4.38-2.49,7.58-6.53,10.46-10.56C256.77,335.34,254.61,335.35,253.33,335.54z M234.31,346.45
					c-0.8-0.31-1.78-0.57-2.5-1.04c-0.4-0.27-0.48-0.08-0.33-0.58c0.08-0.27,0.59-0.6,0.78-0.78c1.13-1.03,2.42-1.84,3.82-2.45
					c0.03,0.05,0.06,0.09,0.09,0.14c1.22,1.76,2.69,3.31,4.42,4.53c-2.07-0.27-4.06-0.99-5.85-2.12c-0.1-0.06-0.38,0.13-0.27,0.2
					c1.99,1.26,4.22,2.01,6.55,2.22c0.53,0.35,1.08,0.67,1.66,0.96C239.87,348.13,237.01,347.49,234.31,346.45z M243.82,346.71
					c-2.41-3.04-4.75-6.13-7.02-9.27c-0.09-0.13-0.39,0.04-0.3,0.16c2.3,3.19,4.68,6.32,7.12,9.4c0.04,0.06,0.13,0.05,0.2,0.02
					c-0.02,0.03-0.04,0.06-0.05,0.1c-0.46-0.19-0.9-0.42-1.34-0.66c0.01-0.03-0.01-0.06-0.07-0.06c-0.01,0-0.02,0-0.03,0
					c-1.8-1.01-3.35-2.4-4.65-4.01c-0.38-0.48-0.74-0.99-1.08-1.51c-0.02-0.06-0.05-0.11-0.1-0.14c-0.45-0.7-0.86-1.41-1.24-2.15
					c-0.34-0.65-0.65-1.32-0.95-2c-0.18-0.42-0.35-0.84-0.52-1.26c-0.18-0.45-0.52-0.78-0.06-1.09c0.99-0.68,3.3,1,4.05,1.61
					c1.12,0.91,2.02,2.05,2.8,3.25c0.59,0.91,1.19,1.89,1.72,2.91c0.01,0.06,0.04,0.12,0.08,0.16
					C243.11,343.61,243.68,345.15,243.82,346.71z M242.73,340.09c-0.04-0.1-0.07-0.21-0.11-0.31c-0.14-0.4-0.27-0.81-0.4-1.22
					c-0.2-0.63-0.38-1.26-0.55-1.89c-0.35-1.27-0.64-2.55-0.9-3.83c-0.03-0.17-0.35-0.05-0.32,0.1c0.3,1.5,0.65,2.99,1.07,4.47
					c0.18,0.64,0.38,1.28,0.59,1.91c0.1,0.3,0.17,0.74,0.33,1.09c-0.65-1.12-1.37-2.16-2.09-3.09c-0.41-0.53-0.86-1.03-1.34-1.49
					c-0.31-2.35-0.21-4.67,0.29-6.97c2.11,1.96,4.68,4.02,5.56,6.78c-0.84,1.45-1.52,2.98-2.06,4.58
					C242.78,340.18,242.76,340.13,242.73,340.09z M244.67,346.83c-0.03-0.48-0.1-0.96-0.21-1.44c1.12-2.65,2.02-5.39,2.7-8.19
					c0.05-0.19-0.28-0.12-0.32,0.03c-0.63,2.62-1.47,5.17-2.49,7.66c-0.27-1.05-0.68-2.1-1.17-3.11c0.55-2.02,1.36-3.93,2.39-5.72
					c0.1-0.06,0.16-0.16,0.17-0.29c0.76-1.28,1.65-2.49,2.65-3.62c0.17,1.92,0.41,3.9,0.25,5.82c-0.1,0.16-0.16,0.33-0.15,0.51
					c0,0.07,0.03,0.14,0.07,0.21c-0.06,0.44-0.15,0.88-0.27,1.31c-0.38,1.36-1.01,2.63-1.73,3.84c-0.32,0.53-0.65,1.05-1,1.56
					C245.44,345.57,245.02,346.33,244.67,346.83z M254.58,336.97c-0.22,0.3-0.44,0.6-0.66,0.89c-0.6,0.8-1.21,1.6-1.84,2.38
					c-1.73,2.13-3.63,4.11-5.87,5.68c0.02-0.03,0.04-0.06,0.06-0.09c0.49-0.73,0.96-1.47,1.38-2.24c1.33-1.88,2.77-3.68,4.31-5.39
					c0.11-0.13-0.2-0.02-0.26,0.04c-1.24,1.37-2.4,2.8-3.51,4.28c0.16-0.33,0.31-0.67,0.44-1.01c0.36-0.92,0.58-1.85,0.7-2.79
					c0.06-0.07,0.09-0.15,0.08-0.24c0-0.02,0-0.05-0.01-0.08c0-0.03-0.01-0.07-0.02-0.1c0-0.01,0-0.02,0-0.04
					c0.39-0.57,2.11-1.34,2.5-1.49c0.73-0.28,2.04-0.74,2.8-0.5c0.13-0.01,0.26-0.01,0.39-0.02
					C254.93,336.5,254.76,336.74,254.58,336.97z"/>
			</g>
		</g>
		<g>
			<g>
				<path class="st7" d="M315.59,324.55c-0.78,5.31-3.79,10.11-8.24,13.14c-0.16-0.04-0.32,0.02-0.43,0.13
					c-1.35-0.55-1.97-2.19-2.77-3.36c-0.66-0.96-1.45-1.54-2.51-2c-0.21-0.09-0.41-0.18-0.62-0.27
					C306.42,330.85,311.41,328.23,315.59,324.55z"/>
				<path class="st7" d="M273.5,327.09c-0.2-2.76-0.12-6.3,1.38-8.76c0.22,0.62,0.15,1.79,0.2,2.23c0.07,0.58,0.17,1.16,0.3,1.73
					c0.3,1.3,0.78,2.59,1.48,3.73c1.18,1.92,2.95,3.38,5.1,4.02c-1.7,1.43-3.13,3.13-4.24,5.02
					C274.99,333.35,273.73,330.24,273.5,327.09z"/>
				<path class="st7" d="M306.38,346.19c-0.58,0.88-1.62,2.59-2.63,3.06c-1.05,0.48-1.44-0.55-2.41-0.42
					c-1.83,0.26-1.67,2.8-2.26,4.03c-1.09,2.25-3.36,4.06-5.22,5.65c-0.63,0.54-2.79,2.83-3.5,2.2c-0.07-0.06-0.14-0.59-0.22-0.72
					c-0.13-0.21-0.31-0.38-0.52-0.52c-1.06-0.73-2.45-0.32-3.24,0.59c-0.56,0.65-0.81,1.48-1.07,2.28
					c-0.34,1.04-0.62,1.23-1.76,1.32c-0.69,0.06-1.42-0.03-2.11-0.05c-1.37-0.03-2.74-0.02-4.11-0.1c-0.78-0.04-2.62-0.46-3.15-1.32
					c0.04-0.06,0.07-0.13,0.08-0.21c0.04-0.42,0.12-0.84,0.22-1.24c0,0,0.01-0.01,0.01-0.01c0.11-0.12,0.13-0.26,0.09-0.38
					c0.63-2.22,1.92-4.24,2.18-6.57c0.34-2.99-1.02-5.92-0.98-8.94c0.07-5.69,2.79-11.14,7.26-14.64c0.13-0.1,0.16-0.22,0.13-0.34
					c1.04-0.83,2.29-1.32,3.64-1.36c1.39-0.04,2.45,0.53,3.69,1.04c2.19,0.9,4.55-0.08,6.71,0.67c1.14,0.4,1.57,1.59,2.52,2.23
					c1.18,0.79,2.54,0.97,3.47,2.15c1.26,1.6,1.94,3.84,4.15,4.18C309.26,340.92,307.77,344.1,306.38,346.19z"/>
				<path class="st6" d="M316.53,323.51c0.03-0.37-0.46-0.51-0.7-0.29c-4.45,4.17-9.91,7.05-15.86,8.39
					c-0.07-0.05-0.14-0.11-0.2-0.17c-0.46-0.44-0.74-1.01-1.24-1.41c-0.74-0.59-1.67-0.79-2.59-0.84c-1.25-0.07-2.51,0.15-3.76-0.02
					c-1.32-0.18-2.41-1-3.7-1.3c-2.13-0.49-4.31,0.12-5.96,1.49c-0.02-0.01-0.04-0.02-0.06-0.02c-2.92-0.76-4.95-3.12-5.9-5.91
					c-0.47-1.38-0.69-2.82-0.78-4.27c-0.05-0.76-0.02-1.43-0.71-1.87c-0.2-0.13-0.43-0.02-0.56,0.15
					c-2.06,2.77-2.15,7.36-1.72,10.64c0.4,3.1,1.84,6.04,4.54,7.72c-1.29,2.42-2.09,5.1-2.3,7.86c-0.1,1.32-0.06,2.64,0.12,3.95
					c0.25,1.84,0.92,3.65,0.86,5.52c-0.08,2.57-1.53,4.8-2.22,7.23c-0.67,0.91-0.5,2.16,0.32,2.98c1.33,1.35,3.8,1.04,5.51,1.08
					c1.32,0.03,2.64,0.07,3.96,0.09c0.69,0.01,1.42,0.09,1.93-0.47c0.53-0.58,0.6-1.5,0.86-2.2c0.25-0.65,0.57-1.28,1.19-1.64
					c0.35-0.21,0.62-0.29,1.03-0.22c0.75,0.12,0.75,0.42,0.99,1.14c0.49,1.49,1.69,0.55,2.58-0.13c1.94-1.49,3.8-3.11,5.5-4.86
					c1.51-1.55,2.3-3.02,2.83-5.09c0.06-0.24,0.13-0.64,0.28-0.83c1.35-1.61,0.99-0.31,1.52-0.07c0.18,0.08,0.32,0.24,0.52,0.29
					c0.83,0.23,1.53-0.54,2.05-1.05c2.48-2.45,6.04-7.68,3.29-10.96c-0.01-0.07-0.03-0.14-0.07-0.2
					C312.88,334.79,315.99,329.42,316.53,323.51z M273.5,327.09c-0.2-2.76-0.12-6.3,1.38-8.76c0.22,0.62,0.15,1.79,0.2,2.23
					c0.07,0.58,0.17,1.16,0.3,1.73c0.3,1.3,0.78,2.59,1.48,3.73c1.18,1.92,2.95,3.38,5.1,4.02c-1.7,1.43-3.13,3.13-4.24,5.02
					C274.99,333.35,273.73,330.24,273.5,327.09z M306.38,346.19c-0.58,0.88-1.62,2.59-2.63,3.06c-1.05,0.48-1.44-0.55-2.41-0.42
					c-1.83,0.26-1.67,2.8-2.26,4.03c-1.09,2.25-3.36,4.06-5.22,5.65c-0.63,0.54-2.79,2.83-3.5,2.2c-0.07-0.06-0.14-0.59-0.22-0.72
					c-0.13-0.21-0.31-0.38-0.52-0.52c-1.06-0.73-2.45-0.32-3.24,0.59c-0.56,0.65-0.81,1.48-1.07,2.28c-0.2,0.61-0.39,0.93-0.73,1.1
					c-0.05-0.06-0.2-0.09-0.34-0.04c-0.43-0.1-0.86-0.19-1.29-0.29c-0.01-0.29-0.01-0.58,0.01-0.86c-0.02-0.39,0.04-0.03-0.05-0.58
					c-0.03-0.18-0.56-0.05-0.53,0.14c0.01,0.23,0.01,0.45,0.02,0.68c0,0,0,0,0,0c-0.74,1.13-1.34,1.29-1.79,0.46
					c-0.46-0.54-0.37-0.67-0.36-1.35c0.01-0.22-0.48-0.1-0.53,0.07c-0.2,0.72-0.6,2.14-1.77,1.74c-0.99-0.34-0.46-1.35-0.25-2
					c0.07-0.22-0.45-0.04-0.51,0.03c-0.21,0.24-0.21,0.53-0.38,0.75c-0.97,1.24-1.75,1.09-2.34-0.09c-0.03-0.07-0.13-0.09-0.23-0.07
					c0-0.02,0.01-0.03,0.01-0.05c0.04-0.42,0.12-0.84,0.22-1.24c0,0,0.01-0.01,0.01-0.01c0.11-0.12,0.13-0.26,0.09-0.38
					c0.63-2.22,1.92-4.24,2.18-6.57c0.34-2.99-1.02-5.92-0.98-8.94c0.07-5.69,2.79-11.14,7.26-14.64c0.13-0.1,0.16-0.22,0.13-0.34
					c1.04-0.83,2.29-1.32,3.64-1.36c1.39-0.04,2.45,0.53,3.69,1.04c2.19,0.9,4.55-0.08,6.71,0.67c1.14,0.4,1.57,1.59,2.52,2.23
					c1.18,0.79,2.54,0.97,3.47,2.15c1.26,1.6,1.94,3.84,4.15,4.18C309.26,340.92,307.77,344.1,306.38,346.19z M307.35,337.69
					c-0.16-0.04-0.32,0.02-0.43,0.13c-1.35-0.55-1.97-2.19-2.77-3.36c-0.66-0.96-1.45-1.54-2.51-2c-0.21-0.09-0.41-0.18-0.62-0.27
					c5.41-1.35,10.39-3.98,14.57-7.66C314.8,329.86,311.8,334.66,307.35,337.69z"/>
				<path class="st6" d="M298.93,340.64c-0.15-2.89-2.4-5.3-5.38-5.3c-2.93,0-5.39,2.45-5.39,5.39c0,2.93,2.46,5.4,5.39,5.39
					c2.98-0.01,5.23-2.4,5.38-5.3c0.01-0.03,0.01-0.05,0.01-0.08C298.94,340.7,298.94,340.67,298.93,340.64z M294.64,342.48
					c0.36-0.61,0.57-1.3,0.63-2.02c0.01-0.1-0.01-0.18-0.06-0.24c0.03-0.13,0.06-0.27,0.09-0.4c0.02,1.03-0.22,2.06-0.76,2.98
					C294.57,342.69,294.61,342.59,294.64,342.48z M293.55,336.02c0.2,0,0.4,0.02,0.59,0.04c-0.05,0.1-0.05,0.23,0.04,0.35
					c0.02,0.03,0.03,0.06,0.05,0.08c-0.05,0.04-0.08,0.09-0.1,0.15c-0.19-0.28-0.44-0.5-0.77-0.61
					C293.43,336.03,293.49,336.02,293.55,336.02z M293.76,342.28c0,0,0.01,0.01,0.01,0.01c-0.02,0.07-0.05,0.13-0.07,0.19
					c-0.12,0.17-0.26,0.32-0.41,0.45C293.46,342.71,293.61,342.49,293.76,342.28z M289.85,339.43c-0.02,0.07-0.04,0.14-0.07,0.21
					c-0.06,0.07-0.1,0.15-0.11,0.26c0,0.01,0,0.02,0,0.04c0,0,0,0.01,0,0.01c-0.04,0-0.08-0.01-0.12-0.01
					c0.08-0.19,0.19-0.37,0.31-0.54C289.86,339.41,289.85,339.42,289.85,339.43z M289.27,338.8c0.37-0.81,0.96-1.49,1.69-1.98
					C290.29,337.42,289.71,338.21,289.27,338.8z M291.28,337.81c-0.01,0-0.02,0-0.03,0.01c0.08-0.08,0.16-0.16,0.26-0.24
					c0.01,0.06,0.01,0.11,0.02,0.17c-0.03,0.02-0.07,0.04-0.1,0.06C291.38,337.8,291.33,337.8,291.28,337.81z M291.8,344.69
					c-0.12-0.04-0.24-0.1-0.35-0.17c0.06-0.06,0.09-0.14,0.11-0.23c0.09,0,0.19,0,0.29-0.02c-0.02,0.09-0.03,0.18-0.05,0.26
					C291.79,344.59,291.8,344.64,291.8,344.69z M293.24,345.42c1.22-0.64,2.2-2.36,2.57-3.43c0.67-1.93,0.33-4.01-0.74-5.71
					c0.49,0.17,0.93,0.42,1.32,0.72c-0.01,0.04-0.01,0.08,0.01,0.12c0.82,2.72,0.38,5.55-1.22,7.89c-0.03,0.05-0.04,0.09-0.05,0.14
					c-0.49,0.18-1.02,0.28-1.58,0.28C293.44,345.44,293.34,345.43,293.24,345.42z M296,344.73c1.26-2.14,1.64-4.62,1.1-7.03
					c0.69,0.82,1.11,1.89,1.15,3.03C298.2,342.4,297.33,343.89,296,344.73z"/>
			</g>
			<path class="st6" d="M292.92,348c-3.63-0.9-5.96-4.12-5.73-7.85c0.02-0.25-0.52-0.16-0.53,0.05c-0.24,3.88,2.18,7.19,5.95,8.13
				C292.81,348.37,293.23,348.08,292.92,348z"/>
			<path class="st6" d="M296.8,352.28c-0.73,0.82-1.25,1.76-1.85,2.67c-0.83,1.26-1.88,2.11-3.13,2.94
				c-0.21,0.14,0.31,0.08,0.4,0.01c0.95-0.63,1.89-1.29,2.62-2.18c0.9-1.1,1.48-2.42,2.43-3.48
				C297.38,352.12,296.88,352.18,296.8,352.28z"/>
			<path class="st6" d="M300.07,348.43c-0.11-0.03-0.29,0.03-0.37,0.1c-0.19,0.17-0.39,0.33-0.58,0.5
				c-0.09,0.08-0.05,0.14,0.05,0.17c0.11,0.03,0.29-0.03,0.37-0.1c0.19-0.17,0.39-0.33,0.58-0.5
				C300.21,348.52,300.17,348.45,300.07,348.43z"/>
			<path class="st6" d="M306.22,344.36c-0.35,1.36-1.12,2.52-2.24,3.37c-0.23,0.18,0.29,0.17,0.42,0.07
				c1.17-0.88,1.98-2.1,2.35-3.52C306.79,344.11,306.26,344.19,306.22,344.36z"/>
			<path class="st6" d="M282.54,356.16c-0.44-0.97-0.62-1.93-0.64-2.99c-0.01-0.67,0.18-1.54-0.19-2.15c-0.41-0.67-1.33-0.75-2-0.47
				c-1.04,0.44-1.36,1.57-1.52,2.59c-0.33,2.08-0.77,3.89-1.85,5.67c-0.09-0.02-0.2-0.01-0.27,0.04c-0.66,0.41-0.32,1.08,0.34,1.26
				c1.45,0.4,2.91-0.42,4.3-0.28c0.88,0.09,1.77,1.02,2.57,0.08C284.2,358.82,283,357.16,282.54,356.16z"/>
			<path class="st6" d="M277,332.14c-1.41-1.13-2.09-2.87-1.82-4.65c0.02-0.13-0.5-0.04-0.52,0.09c-0.28,1.82,0.4,3.58,1.84,4.74
				C276.62,332.41,277.08,332.2,277,332.14z"/>
			<path class="st6" d="M306.64,335.4c-1.34-0.6-1.59-2.72-3.2-2.8c-0.12-0.01-0.6,0.22-0.34,0.23c1.46,0.08,1.84,2.23,3.11,2.79
				C306.33,335.67,306.81,335.48,306.64,335.4z"/>
			<path class="st6" d="M287.41,346.5c-0.87-1.18-1.4-2.49-1.61-3.93c-0.03-0.21-0.56-0.09-0.53,0.14c0.21,1.47,0.77,2.82,1.65,4.01
				C287.05,346.89,287.55,346.7,287.41,346.5z"/>
			<path class="st6" d="M281.85,347.74l-0.17-0.17c-0.11-0.11-0.61,0.08-0.49,0.19c0.06,0.06,0.12,0.12,0.17,0.17
				C281.47,348.05,281.96,347.86,281.85,347.74z"/>
			<path class="st6" d="M284.46,355.85c-0.68-0.81-1.05-1.77-1.06-2.83c0-0.29-0.54-0.22-0.53,0.03c0.01,1.13,0.38,2.17,1.11,3.03
				C284.15,356.28,284.65,356.06,284.46,355.85z"/>
			<path class="st6" d="M281.93,333.52c-2.8,2.88-4.66,6.43-5.42,10.37c-0.01,0.03,0.5,0.01,0.53-0.14c0.76-3.9,2.6-7.43,5.37-10.28
				C282.5,333.37,282.02,333.43,281.93,333.52z"/>
			<path class="st6" d="M289.95,330.66c-1-0.69-2.17-0.95-3.38-0.78c-0.13,0.02-0.57,0.24-0.23,0.2c1.12-0.15,2.18,0.12,3.11,0.76
				C289.57,330.91,290.01,330.7,289.95,330.66z"/>
			<path class="st6" d="M312.24,330.17c-0.64,0.8-1.28,1.61-1.92,2.41c-0.15,0.19,0.38,0.16,0.49,0.02c0.64-0.8,1.28-1.61,1.92-2.41
				C312.89,330,312.36,330.03,312.24,330.17z"/>
			<path class="st6" d="M307.4,331.67c-0.12,0.12-0.23,0.23-0.35,0.35c-0.21,0.21,0.3,0.2,0.42,0.08c0.12-0.12,0.23-0.23,0.35-0.35
				C308.03,331.54,307.52,331.55,307.4,331.67z"/>
		</g>
	</g>
</g>
<g id="DESIGNED_BY_FREEPIK">
</g>
</svg>
