<?xml version="1.0" encoding="utf-8"?>
<!-- Generator: Adobe Illustrator 24.0.2, SVG Export Plug-In . SVG Version: 6.00 Build 0)  -->
<svg version="1.1" id="Layer_1" xmlns="http://www.w3.org/2000/svg" xmlns:xlink="http://www.w3.org/1999/xlink" x="0px" y="0px"
	 viewBox="0 0 191.29 288" style="enable-background:new 0 0 191.29 288;" xml:space="preserve">
<style type="text/css">
	.st0{fill:#00B8AD;}
	.st1{fill:#003359;}
	.st2{fill:#FFB412;}
	.st3{fill:#0087EB;}
</style>
<g>
	<g>
		<path class="st0" d="M56.64,231.24h-0.87l-0.12-0.86c-0.39-2.87-0.77-5.37-1.1-7.58c-1.52-10.12-2.15-14.3,0.95-19.17
			c3.19-5.01,7.61-8.16,11.88-11.21c4.51-3.22,9.18-6.54,12.38-12.1c3.07-5.33,2.91-11.22-0.41-15.37
			c-3.97-4.96-11.4-6.35-19.88-3.73c-5.06,1.57-8.36,3.25-10.76,4.47c-7.09,3.6-7.6,2.8-16.22-10.55c-0.89-1.38-1.87-2.9-2.96-4.58
			l-0.48-0.74l0.68-0.57c17.76-14.88,39.51-19.47,58.19-12.29c13.67,5.25,22.87,15.85,24.62,28.35
			c1.99,14.21-5.93,28.82-22.29,41.15c-10.64,8.02-10.17,13.48-9.87,17.1c0.15,1.77,0.29,3.44-0.92,4.76
			C77.41,230.53,71.87,231.24,56.64,231.24z M67.51,157.92c5.62,0,10.37,1.98,13.41,5.78c3.84,4.81,4.07,11.56,0.58,17.62
			c-3.41,5.93-8.26,9.39-12.95,12.73c-4.31,3.07-8.38,5.97-11.36,10.65c-2.7,4.24-2.14,7.93-0.66,17.8c0.3,1.99,0.63,4.22,0.98,6.74
			c13.23-0.03,18.99-0.67,20.47-2.28c0.59-0.64,0.54-1.55,0.4-3.24c-0.34-4.05-0.87-10.18,10.65-18.86
			c15.76-11.88,23.4-25.82,21.52-39.28c-1.65-11.76-10.38-21.77-23.36-26.76c-17.75-6.83-38.44-2.56-55.5,11.39
			c0.9,1.39,1.72,2.66,2.48,3.84c4.11,6.37,6.37,9.88,8.07,11.04c1.32,0.9,2.38,0.43,5.56-1.19c2.47-1.26,5.85-2.98,11.08-4.6
			C61.9,158.38,64.8,157.92,67.51,157.92z"/>
	</g>
	<g>
		<path class="st0" d="M66.14,272.48c-7.81,0-16.21-4.94-16.21-15.78c0-10.81,8.4-15.74,16.21-15.74c8.1,0,16.31,5.41,16.31,15.74
			c0,4.86-1.78,8.95-5.13,11.84C74.36,271.08,70.39,272.48,66.14,272.48z M66.14,242.96c-6.85,0-14.21,4.3-14.21,13.74
			c0,9.47,7.37,13.78,14.21,13.78c6.89,0,14.31-4.31,14.31-13.78C80.45,247.26,73.04,242.96,66.14,242.96z"/>
	</g>
	<g>
		<g>
			<path class="st0" d="M56.64,235.56H52l-0.63-4.6c-0.37-2.73-0.73-5.12-1.05-7.24l-0.04-0.29c-1.59-10.58-2.39-15.9,1.58-22.13
				c0.3-0.46,0.6-0.91,0.91-1.35l1.63,1.16c-0.29,0.41-0.58,0.83-0.85,1.26c-3.56,5.6-2.8,10.67-1.29,20.76l0.04,0.29
				c0.32,2.13,0.68,4.53,1.05,7.26l0.39,2.87h2.9c16.4,0,21.9-0.82,24.52-3.68c1.01-1.1,1.52-2.39,1.61-4.05l2,0.11
				c-0.12,2.12-0.81,3.86-2.14,5.29C79.47,234.67,74.13,235.56,56.64,235.56z"/>
		</g>
		<g>
			<path class="st0" d="M79.58,173.77l-1.99-0.22c0.04-0.34,0.06-0.67,0.06-1c0-1.45-0.35-2.79-1.04-3.98
				c-1.75-3.03-5.62-4.62-10.37-4.3l-0.14-2c5.56-0.38,10.09,1.58,12.24,5.29c0.87,1.5,1.31,3.18,1.31,4.99
				C79.65,172.95,79.63,173.36,79.58,173.77z"/>
		</g>
		<g>
			<path class="st0" d="M43.57,171.87c-5.43,0-7.96-3.92-14.71-14.38l-0.06-0.09c-0.87-1.35-1.84-2.85-2.9-4.49l-2.57-3.95
				l3.61-3.03c8.58-7.19,17.91-12.12,27.73-14.66l0.5,1.94c-9.53,2.46-18.6,7.26-26.95,14.26l-2.26,1.89l1.6,2.47
				c1.07,1.64,2.03,3.14,2.91,4.49l-0.78,0.63l0.84-0.54c6.5,10.07,8.69,13.47,13.03,13.47c1.54,0,2.94-0.52,4.58-1.31l0.87,1.8
				C47.13,171.27,45.49,171.87,43.57,171.87z"/>
		</g>
		<g>
			<path class="st0" d="M105.79,197.77l-1.53-1.28c7.14-8.53,10.92-17.81,10.92-26.83c0-2.37-0.26-4.74-0.77-7.07l1.95-0.43
				c0.54,2.46,0.81,4.99,0.81,7.5C117.18,179.16,113.24,188.88,105.79,197.77z"/>
		</g>
	</g>
	<g>
		<g>
			<path class="st0" d="M66.24,276.8h-0.09c-10.2,0-20.53-6.9-20.53-20.1c0-2.43,0.36-4.73,1.06-6.85l1.9,0.63
				c-0.64,1.92-0.96,4.01-0.96,6.22c0,11.88,9.32,18.1,18.53,18.1L66.24,276.8z M84.63,266.13l-1.78-0.91
				c1.28-2.51,1.92-5.38,1.92-8.52c0-4.11-1.09-7.7-3.25-10.67l1.62-1.17c2.41,3.33,3.63,7.31,3.63,11.85
				C86.77,260.16,86.05,263.33,84.63,266.13z"/>
		</g>
	</g>
</g>
<g>
	<g>
		<g>
			<path class="st1" d="M140.9,162.13h-0.87l-0.12-0.86c-0.23-1.7-0.46-3.19-0.65-4.5c-0.92-6.11-1.3-8.64,0.62-11.66
				c1.94-3.04,4.59-4.94,7.17-6.77c2.77-1.97,5.38-3.84,7.24-7.06c1.74-3.02,1.66-6.34-0.21-8.68c-2.25-2.81-6.5-3.59-11.37-2.08
				c-2.97,0.92-4.91,1.91-6.33,2.63c-4.54,2.31-5.07,1.48-10.16-6.41c-0.53-0.82-1.11-1.72-1.76-2.72l-0.48-0.74l0.68-0.57
				c10.66-8.93,23.74-11.69,34.97-7.37c8.26,3.17,13.82,9.59,14.88,17.16c1.2,8.59-3.55,17.41-13.4,24.83
				c-6.14,4.63-5.89,7.62-5.7,9.8c0.09,1.09,0.19,2.22-0.65,3.14C153.43,161.7,150.19,162.13,140.9,162.13z M147.35,117.77
				c3.46,0,6.39,1.23,8.28,3.59c2.39,2.99,2.54,7.17,0.38,10.92c-2.07,3.6-4.99,5.68-7.81,7.69c-2.53,1.8-4.91,3.5-6.64,6.21
				c-1.52,2.39-1.2,4.54-0.33,10.29c0.16,1.09,0.35,2.3,0.54,3.66c5.29-0.02,10.57-0.2,11.51-1.22c0.24-0.26,0.21-0.73,0.13-1.62
				c-0.2-2.34-0.53-6.27,6.49-11.56c9.24-6.96,13.72-15.11,12.62-22.95c-0.96-6.84-6.05-12.66-13.62-15.57
				c-10.31-3.96-22.32-1.54-32.29,6.47c0.46,0.71,0.88,1.36,1.28,1.97c2.41,3.74,3.74,5.8,4.68,6.44c0.57,0.39,0.99,0.23,2.89-0.73
				c1.48-0.75,3.51-1.78,6.64-2.76C143.94,118.04,145.71,117.77,147.35,117.77z"/>
		</g>
	</g>
	<g>
		<g>
			<path class="st1" d="M146.54,186.64c-4.99,0-10.04-3.36-10.04-9.78c0-6.4,5.05-9.75,10.04-9.75c5.02,0,10.09,3.35,10.09,9.75
				C156.64,183.28,151.56,186.64,146.54,186.64z M146.54,169.1c-3.87,0-8.04,2.43-8.04,7.75c0,5.35,4.17,7.78,8.04,7.78
				c3.9,0,8.09-2.44,8.09-7.78C154.64,171.53,150.44,169.1,146.54,169.1z"/>
		</g>
	</g>
	<g>
		<g>
			<path class="st1" d="M140.9,166.45h-4.64l-0.63-4.6c-0.23-1.65-0.44-3.1-0.63-4.37c-0.97-6.45-1.55-10.31,1.24-14.69
				c2.39-3.75,5.53-5.99,8.3-7.97l0.96-0.68l1.17,1.62l-0.96,0.69c-2.63,1.87-5.6,3.99-7.78,7.41c-2.39,3.75-1.91,6.93-0.96,13.26
				c0.2,1.35,0.42,2.8,0.65,4.47l0.39,2.87h2.9c9.28,0,13.49-0.36,15.56-2.62c1.53-1.67,1.36-3.61,1.25-4.9
				c-0.18-2.09,0.04-4.09,4.49-7.52l1.22,1.58c-3.95,3.04-3.83,4.43-3.72,5.77c0.12,1.44,0.35,4.12-1.77,6.43
				C155.38,165.96,151.25,166.45,140.9,166.45z"/>
		</g>
		<g>
			<path class="st1" d="M153,128.39l-1.93-0.53c0.09-0.34,0.14-0.67,0.14-0.99c0-0.48-0.11-0.92-0.33-1.29
				c-0.17-0.29-0.41-0.55-0.7-0.76l1.16-1.63c0.53,0.38,0.95,0.84,1.27,1.38c0.39,0.68,0.59,1.45,0.59,2.29
				C153.21,127.37,153.14,127.88,153,128.39z"/>
		</g>
		<g>
			<path class="st1" d="M133.13,128.62c-4.4,0-6.33-2.99-10.55-9.54l-4.32-6.66l3.61-3.03c8.83-7.4,19.11-11,29.42-10.27l-0.14,2
				c-9.8-0.69-19.56,2.75-27.99,9.81l-2.25,1.89l3.36,5.18c4.05,6.27,5.56,8.62,8.87,8.62c1.53,0,2.81-0.65,4.29-1.4
				c1.41-0.72,3.17-1.62,5.96-2.48c0.99-0.31,1.95-0.51,2.85-0.6l0.2,1.99c-0.77,0.08-1.6,0.25-2.46,0.52
				c-2.63,0.81-4.3,1.67-5.65,2.35C136.76,127.8,135.14,128.62,133.13,128.62z"/>
		</g>
		<g>
			<path class="st1" d="M175.57,137.75l-1.75-0.97c2.13-3.81,3.2-7.71,3.2-11.6c0-1.59-0.18-3.19-0.54-4.74l1.95-0.45
				c0.39,1.7,0.59,3.45,0.59,5.19C179.03,129.41,177.86,133.64,175.57,137.75z"/>
		</g>
	</g>
	<g>
		<g>
			<path class="st1" d="M146.54,190.95c-7.13,0-14.36-4.84-14.36-14.1c0-9.24,7.22-14.07,14.36-14.07c6.99,0,14.41,4.93,14.41,14.07
				c0,2.75-0.67,5.23-1.99,7.4l-1.71-1.04c1.13-1.84,1.7-3.98,1.7-6.35c0-7.84-6.4-12.07-12.41-12.07
				c-6.14,0-12.36,4.15-12.36,12.07c0,7.94,6.22,12.1,12.36,12.1V190.95z"/>
		</g>
	</g>
</g>
<g>
	<g>
		<path class="st2" d="M86.09,109.5h-0.87l-0.12-0.86c-0.4-2.93-0.78-5.49-1.12-7.74c-1.55-10.32-2.19-14.59,0.96-19.55
			c3.25-5.11,7.76-8.32,12.13-11.43c4.61-3.29,9.38-6.68,12.64-12.36c3.14-5.45,2.98-11.47-0.42-15.72
			c-4.06-5.07-11.65-6.5-20.32-3.81c-5.17,1.6-8.53,3.31-10.99,4.56c-7.22,3.67-7.74,2.85-16.53-10.77
			c-0.91-1.41-1.91-2.96-3.02-4.67l-0.48-0.74l0.68-0.57C76.74,10.65,98.94,5.96,118,13.29c13.94,5.36,23.34,16.17,25.12,28.92
			c2.03,14.49-6.05,29.41-22.75,41.99c-10.87,8.2-10.39,13.78-10.08,17.47c0.15,1.8,0.3,3.51-0.93,4.85
			C107.29,108.77,101.63,109.5,86.09,109.5z M97.18,34.69c5.73,0,10.57,2.02,13.67,5.9c3.92,4.9,4.15,11.78,0.59,17.96
			c-3.48,6.05-8.43,9.58-13.22,12.99c-4.4,3.14-8.56,6.1-11.6,10.88c-2.76,4.33-2.19,8.1-0.67,18.18c0.31,2.04,0.65,4.32,1.01,6.9
			c13.53-0.03,19.42-0.69,20.93-2.33c0.61-0.66,0.56-1.6,0.41-3.33c-0.35-4.13-0.88-10.38,10.87-19.24
			c16.1-12.13,23.9-26.38,21.97-40.12c-1.69-12.02-10.6-22.24-23.86-27.33c-18.14-6.97-39.27-2.61-56.7,11.65
			c0.92,1.42,1.77,2.73,2.54,3.93c4.2,6.51,6.51,10.09,8.25,11.28c1.35,0.92,2.45,0.44,5.7-1.21c2.52-1.28,5.97-3.04,11.31-4.69
			C91.46,35.16,94.43,34.69,97.18,34.69z"/>
	</g>
	<g>
		<path class="st2" d="M95.79,151.61c-7.96,0-16.53-5.04-16.53-16.09c0-11.02,8.57-16.04,16.53-16.04c8.26,0,16.63,5.51,16.63,16.04
			C112.42,146.08,104.06,151.61,95.79,151.61z M95.79,121.47c-7,0-14.53,4.4-14.53,14.04c0,9.68,7.53,14.09,14.53,14.09
			c7.05,0,14.63-4.41,14.63-14.09C110.42,125.87,102.84,121.47,95.79,121.47z"/>
	</g>
	<g>
		<g>
			<path class="st2" d="M86.09,114.12h-4.91l-0.66-4.86c-0.4-2.91-0.78-5.44-1.11-7.68c-1.63-10.86-2.45-16.3,1.64-22.73
				c0.1-0.15,0.2-0.31,0.3-0.46L83,79.5l-0.28,0.43c-3.69,5.79-2.9,10.99-1.35,21.36c0.34,2.24,0.72,4.79,1.12,7.7l0.43,3.13h3.16
				c16.82,0,22.48-0.86,25.21-3.83c0.83-0.91,1.35-1.94,1.58-3.17l1.96,0.37c-0.3,1.61-0.98,2.97-2.07,4.15
				C109.54,113.16,103.8,114.12,86.09,114.12z"/>
		</g>
		<g>
			<path class="st2" d="M109.26,50.94l-1.99-0.23c0.04-0.37,0.07-0.73,0.07-1.09c0-1.45-0.35-2.78-1.04-3.97
				c-1.83-3.16-5.96-4.75-11.08-4.23l-0.2-1.99c5.94-0.61,10.78,1.35,13.01,5.22c0.87,1.5,1.31,3.17,1.31,4.97
				C109.34,50.05,109.31,50.49,109.26,50.94z"/>
		</g>
		<g>
			<path class="st2" d="M72.75,49.11c-5.65,0-8.25-4.02-15.18-14.78c-0.91-1.41-1.91-2.96-3.02-4.66l-2.72-4.18l3.82-3.2
				c8.48-7.11,17.7-12.07,27.39-14.74l0.53,1.93c-9.41,2.6-18.37,7.42-26.63,14.35l-2.46,2.06l1.75,2.69
				c1.11,1.71,2.11,3.26,3.02,4.67c6.69,10.37,8.95,13.86,13.5,13.86c1.14,0,2.28-0.27,3.69-0.87l0.78,1.84
				C75.55,48.79,74.17,49.11,72.75,49.11z"/>
		</g>
		<g>
			<path class="st2" d="M136.13,75.83l-1.53-1.29c7.51-8.85,11.48-18.48,11.48-27.87c0-2.44-0.27-4.9-0.79-7.3l1.95-0.43
				c0.56,2.54,0.84,5.14,0.84,7.73C148.09,56.53,143.95,66.61,136.13,75.83z"/>
		</g>
	</g>
	<g>
		<g>
			<path class="st2" d="M95.89,156.23h-0.1c-10.51,0-21.16-7.12-21.16-20.72c0-2.5,0.37-4.88,1.1-7.06l1.9,0.63
				c-0.66,1.98-0.99,4.14-0.99,6.43c0,12.29,9.64,18.72,19.16,18.72L95.89,156.23z M114.84,145.23l-1.78-0.9
				c1.32-2.6,1.99-5.56,1.99-8.81c0-4.24-1.13-7.96-3.36-11.04l1.62-1.17c2.48,3.43,3.74,7.54,3.74,12.21
				C117.05,139.08,116.31,142.35,114.84,145.23z"/>
		</g>
	</g>
</g>
<g>
	<g>
		<path class="st3" d="M34.63,96.83h-0.87l-0.12-0.86c-0.21-1.57-0.42-2.95-0.6-4.16c-0.83-5.51-1.21-8.03,0.59-10.85
			c1.8-2.83,4.26-4.58,6.65-6.28c2.55-1.82,4.97-3.54,6.67-6.51c1.59-2.77,1.52-5.81-0.19-7.94c-2.06-2.58-5.96-3.29-10.44-1.9
			c-2.75,0.85-4.54,1.76-5.84,2.43c-4.26,2.16-4.75,1.39-9.5-5.96c-0.49-0.76-1.03-1.59-1.63-2.52l-0.48-0.74l0.68-0.57
			c9.88-8.28,22.01-10.84,32.43-6.83c7.67,2.95,12.83,8.9,13.82,15.93c1.12,7.98-3.29,16.16-12.43,23.04c-5.65,4.26-5.41,7-5.24,9
			c0.09,1.03,0.18,2.09-0.62,2.96C46.26,96.42,43.25,96.83,34.63,96.83z M40.6,55.64c3.23,0,5.96,1.15,7.72,3.35
			c2.23,2.79,2.37,6.69,0.36,10.19c-1.92,3.35-4.63,5.27-7.25,7.14c-2.33,1.66-4.53,3.23-6.12,5.73c-1.39,2.19-1.09,4.17-0.3,9.47
			c0.15,0.99,0.31,2.09,0.49,3.32c4.85-0.02,9.68-0.19,10.52-1.1c0.2-0.21,0.17-0.66,0.1-1.44c-0.19-2.18-0.5-5.84,6.03-10.76
			c8.53-6.42,12.66-13.94,11.65-21.16c-0.88-6.3-5.58-11.66-12.55-14.35c-9.49-3.65-20.55-1.43-29.74,5.94
			c0.41,0.63,0.79,1.22,1.14,1.77c2.23,3.45,3.45,5.35,4.31,5.94c0.47,0.32,0.79,0.24,2.6-0.68c1.37-0.7,3.25-1.65,6.16-2.55
			C37.43,55.9,39.07,55.64,40.6,55.64z"/>
	</g>
	<g>
		<g>
			<path class="st3" d="M34.63,100.99h-4.5l-0.61-4.46c-0.21-1.53-0.41-2.87-0.59-4.06c-0.9-6.01-1.45-9.61,1.18-13.74
				c2.23-3.51,5.16-5.6,7.75-7.44c0.95-0.68,1.85-1.32,2.66-1.99l1.28,1.54c-0.87,0.72-1.8,1.38-2.78,2.08
				c-2.43,1.73-5.19,3.7-7.22,6.88c-2.23,3.5-1.78,6.45-0.9,12.32c0.19,1.24,0.39,2.59,0.6,4.13l0.37,2.73h2.75
				c8.61,0,12.52-0.34,14.46-2.45c1.44-1.57,1.28-3.47,1.18-4.6c-0.17-2.01,0.04-3.81,4.39-7.09c0.54-0.41,1.07-0.82,1.58-1.23
				l1.27,1.55c-0.53,0.43-1.08,0.86-1.64,1.28c-3.81,2.87-3.71,4.06-3.6,5.32c0.11,1.27,0.33,3.91-1.7,6.13
				C48.14,100.52,44.28,100.99,34.63,100.99z"/>
		</g>
		<g>
			<path class="st3" d="M45.71,65.63l-1.92-0.57c0.1-0.32,0.14-0.63,0.14-0.93c0-0.4-0.09-0.76-0.27-1.08l1.63-1.17
				c0.04,0.06,0.07,0.12,0.11,0.18c0.35,0.61,0.53,1.31,0.53,2.07C45.94,64.62,45.86,65.13,45.71,65.63z"/>
		</g>
		<g>
			<path class="st3" d="M27.45,65.99c-4.2,0-6.01-2.8-9.96-8.93l-0.12-0.18c-0.46-0.71-0.95-1.48-1.5-2.32l-2.49-3.83l3.5-2.94
				c7.53-6.31,16.16-9.64,24.96-9.64c1.62,0,3.25,0.12,4.83,0.34l-0.29,1.98c-1.49-0.21-3.02-0.32-4.54-0.32
				c-8.33,0-16.52,3.17-23.68,9.18l-2.14,1.8l1.53,2.35c0.55,0.85,1.05,1.62,1.51,2.33l0.11,0.18c4.01,6.22,5.3,8.01,8.28,8.01
				c1.44,0,2.63-0.6,4-1.31c1.31-0.66,2.93-1.49,5.5-2.29c1.93-0.6,3.74-0.75,5.21-0.46l-0.39,1.96c-1.13-0.23-2.62-0.09-4.23,0.41
				c-2.41,0.75-3.95,1.53-5.19,2.16C30.88,65.22,29.36,65.99,27.45,65.99z"/>
		</g>
		<g>
			<path class="st3" d="M67.5,73.2l-1.79-0.9c1.61-3.2,2.42-6.47,2.42-9.73c0-1.48-0.17-2.97-0.51-4.43l1.95-0.45
				c0.37,1.61,0.56,3.25,0.56,4.88C70.14,66.14,69.25,69.71,67.5,73.2z"/>
		</g>
	</g>
	<g>
		<g>
			<path class="st3" d="M39.85,130.11c-6.72,0-13.52-4.56-13.52-13.28c0-8.7,6.8-13.26,13.52-13.26c6.58,0,13.57,4.65,13.57,13.26
				c0,4.29-1.8,8.01-5.06,10.47l-1.2-1.6c1.95-1.47,4.27-4.19,4.27-8.87c0-7.31-5.96-11.26-11.57-11.26
				c-5.72,0-11.52,3.87-11.52,11.26c0,7.4,5.79,11.28,11.52,11.28V130.11z"/>
		</g>
	</g>
	<g>
		<path class="st3" d="M39.85,125.96c-4.65,0-9.36-3.13-9.36-9.12c0-5.97,4.71-9.1,9.36-9.1c4.68,0,9.41,3.13,9.41,9.1
			C49.26,122.82,44.53,125.96,39.85,125.96z M39.85,109.74c-3.54,0-7.36,2.22-7.36,7.1c0,4.89,3.82,7.12,7.36,7.12
			c3.57,0,7.41-2.23,7.41-7.12c0-2.2-0.79-4.03-2.28-5.31C43.63,110.37,41.81,109.74,39.85,109.74z"/>
	</g>
</g>
</svg>
