<?xml version="1.0" encoding="utf-8"?>
<!-- Generator: Adobe Illustrator 24.0.2, SVG Export Plug-In . SVG Version: 6.00 Build 0)  -->
<svg version="1.1" id="Layer_1" xmlns="http://www.w3.org/2000/svg" xmlns:xlink="http://www.w3.org/1999/xlink" x="0px" y="0px"
	 viewBox="0 0 16 16" style="enable-background:new 0 0 16 16;" xml:space="preserve">
<style type="text/css">
	.st0{fill:#134E4A;}
	.st1{fill:#F97316;}
</style>
<circle class="st0" cx="8" cy="8" r="8"/>
<g id="XMLID_678_">
	<path id="XMLID_100_" class="st1" d="M12.87,8.77c0,0,1.57-1.9,1.01-3.69c-0.55-1.78-2.92-2.03-4.64-1.01
		C7.52,5.09,5.96,8.1,3.71,8.47c0,0,0.83,0.28,2.4-0.74c1.57-1.01,3.35-3.29,5.1-3.16c1.75,0.12,2.27,2.43,0.92,3.59
		c0,0,0.4-1.44-0.15-2.37c0,0,0.4,1.57-0.71,2.33c0,0-0.15-1.42-0.86-2c0,0,0.58,1.23,0.28,2.03c0,0-3.01,0.12-4.98,2.12
		c0,0,3.29-1.87,6.64-1.17l0.43,1.38c0,0-4.21-0.37-6.91,2.03c0,0,4.15-1.97,7.77-1.29L12.87,8.77z"/>
	<path id="XMLID_112_" class="st1" d="M5.13,7.15c0,0-1.79-0.22-2.67,0.71c-0.96,1-0.46,3.47,2.15,3.01l0.52,1.51
		c0,0,2.03-1.57,4.06-1.84c0,0-1.54-0.22-3.78,0.95l-0.49-1.29c0,0-1.6,0.49-2.24-0.74C2.02,8.22,3.33,7.37,5.13,7.15z"/>
</g>
</svg>
